<svg id="图层_1" data-name="图层 1" xmlns="http://www.w3.org/2000/svg" xmlns:xlink="http://www.w3.org/1999/xlink" viewBox="0 0 328.66 58.32"><defs><style>.cls-1{fill:none;}.cls-2{clip-path:url(#clip-path);}.cls-3{fill:#0075c1;}.cls-4{fill:#0077c2;}.cls-5{fill:#007ac4;}.cls-6{fill:#007dc5;}.cls-7{fill:#0080c7;}.cls-8{fill:#0082c9;}.cls-9{fill:#0086ca;}.cls-10{fill:#0089cc;}.cls-11{fill:#1d8dce;}.cls-12{fill:#3191d0;}.cls-13{fill:#4195d1;}.cls-14{fill:#4d98d3;}.cls-15{fill:#599dd5;}.cls-16{fill:#62a0d7;}.cls-17{fill:#6ca5d9;}.cls-18{fill:#74a9db;}.cls-19{fill:#7eaddd;}.cls-20{fill:#85b1df;}.cls-21{fill:#8eb6e1;}.cls-22{fill:#96bbe3;}.cls-23{fill:#9ebfe4;}.cls-24{fill:#a6c4e6;}.cls-25{fill:#adc8e8;}.cls-26{fill:#b5cdea;}.cls-27{fill:#bbd1ec;}.cls-28{fill:#c3d6ee;}.cls-29{fill:#cadaf0;}.cls-30{fill:#d1dff2;}.cls-31{fill:#d7e4f4;}.cls-32{fill:#dfe8f6;}.cls-33{fill:#e5edf7;}.cls-34{fill:#ecf2f9;}.cls-35{fill:#f2f6fb;}.cls-36{fill:#f9fbfd;}.cls-37{fill:#fff;}.cls-38,.cls-39{fill:#004097;}.cls-39,.cls-40{fill-rule:evenodd;}.cls-40,.cls-41{fill:#fcfdfd;}</style><clipPath id="clip-path" transform="translate(-0.83 -34.74)"><path class="cls-1" d="M30.15,81.95a18,18,0,1,0-18-18A18,18,0,0,0,30.15,81.95Z"/></clipPath></defs><title>学校图标</title><g class="cls-2"><rect class="cls-3" x="11.35" y="11.29" width="35.92" height="1.03"/><rect class="cls-4" x="11.35" y="12.32" width="35.92" height="1.03"/><rect class="cls-5" x="11.35" y="13.34" width="35.92" height="1.03"/><rect class="cls-6" x="11.35" y="14.37" width="35.92" height="1.03"/><rect class="cls-7" x="11.35" y="15.4" width="35.92" height="1.03"/><rect class="cls-8" x="11.35" y="16.42" width="35.92" height="1.03"/><rect class="cls-9" x="11.35" y="17.45" width="35.92" height="1.03"/><rect class="cls-10" x="11.35" y="18.47" width="35.92" height="1.03"/><rect class="cls-11" x="11.35" y="19.5" width="35.92" height="1.03"/><rect class="cls-12" x="11.35" y="20.53" width="35.92" height="1.03"/><rect class="cls-13" x="11.35" y="21.55" width="35.92" height="1.03"/><rect class="cls-14" x="11.35" y="22.58" width="35.92" height="1.03"/><rect class="cls-15" x="11.35" y="23.61" width="35.92" height="1.03"/><rect class="cls-16" x="11.35" y="24.63" width="35.92" height="1.03"/><rect class="cls-17" x="11.35" y="25.66" width="35.92" height="1.03"/><rect class="cls-18" x="11.35" y="26.68" width="35.92" height="1.03"/><rect class="cls-19" x="11.35" y="27.71" width="35.92" height="1.03"/><rect class="cls-20" x="11.35" y="28.74" width="35.92" height="1.03"/><rect class="cls-21" x="11.35" y="29.76" width="35.92" height="1.03"/><rect class="cls-22" x="11.35" y="30.79" width="35.92" height="1.03"/><rect class="cls-23" x="11.35" y="31.82" width="35.92" height="1.03"/><rect class="cls-24" x="11.35" y="32.84" width="35.92" height="1.03"/><rect class="cls-25" x="11.35" y="33.87" width="35.92" height="1.03"/><rect class="cls-26" x="11.35" y="34.89" width="35.92" height="1.03"/><rect class="cls-27" x="11.35" y="35.92" width="35.92" height="1.03"/><rect class="cls-28" x="11.35" y="36.95" width="35.92" height="1.03"/><rect class="cls-29" x="11.35" y="37.97" width="35.92" height="1.03"/><rect class="cls-30" x="11.35" y="39" width="35.92" height="1.03"/><rect class="cls-31" x="11.35" y="40.03" width="35.92" height="1.03"/><rect class="cls-32" x="11.35" y="41.05" width="35.92" height="1.03"/><rect class="cls-33" x="11.35" y="42.08" width="35.92" height="1.03"/><rect class="cls-34" x="11.35" y="43.11" width="35.92" height="1.03"/><rect class="cls-35" x="11.35" y="44.13" width="35.92" height="1.03"/><rect class="cls-36" x="11.35" y="45.16" width="35.92" height="1.03"/><rect class="cls-37" x="11.35" y="46.18" width="35.92" height="1.03"/></g><polygon class="cls-37" points="15.21 40.2 43.31 40.2 41.06 42.51 16.89 42.51 15.21 40.2"/><path class="cls-37" d="M30,67.1h2.12v1.33H27.84V67.1Zm0,1.51h2.12V69H27.84v-.44Zm-.14-2.09h2.26V67H27.84v-.44Zm-1.12,2.61s-.17.32-.37.39-.18,0-.19.13a.3.3,0,0,1-.1.21.14.14,0,0,1-.14,0v-.75Zm-.85-2.7a1.8,1.8,0,0,0,.59-.12c.19-.1.26-.35.21-.4s0-.24-.17-.32c-.28-.15-.4.1-.54.3s-.08.09-.09.09h0v.45Zm-.19-.5h-1.2v8.86h1.2V65.92Zm.13-1.14H26.31a.06.06,0,0,0-.07.06v.86a.06.06,0,0,0,.07.06h1.46a.06.06,0,0,0,.06-.06v-.86a.06.06,0,0,0-.06-.06ZM27,63.37h.08c.15,0,.26.19.31.32a1.08,1.08,0,0,1,0,.27.36.36,0,0,1,.18.5c-.09.13,0,.21-.1.21h-.93c-.13,0,0-.08-.1-.21a.35.35,0,0,1,.18-.5.66.66,0,0,1,0-.27c.05-.13.16-.34.31-.32Zm-.81,2.54v.48h-.3c-.22,0-.25-.34-.3-.41s-.26-.19-.28-.3-.05-.08,0-.19.18-.09.21-.05a0,0,0,0,0,.05,0,0,0,0,0,1,0,0h0a0,0,0,0,0,0,0,.16.16,0,0,0-.05.09c0,.14.27.1.37.18s.1.13.15.17a.19.19,0,0,0,.12,0Zm.05.62h-.36V67h.36v-.45Zm0,.53H23.84v.39h2.41v-.39Zm0,.5h-2.4v1.07h2.4V67.56Zm0,1.19H23.84v.36h2.43v-.36Zm-1.74.53c.09,0-.18.3-.39.37a.18.18,0,0,0-.1.09c0,.05-.06.15-.08.17s-.12,0-.12,0v-.66Zm-.87-2.36H22.55v7.9h1.11v-7.9Zm.08-1.11H22.42a.06.06,0,0,0-.05.06v.79a.06.06,0,0,0,.05.06h1.32a.06.06,0,0,0,.06-.06v-.79a.06.06,0,0,0-.06-.06ZM20.2,67.26H19.13v7.52h1v-7.1h0v-.4Zm.08-.83H19.09a.06.06,0,0,0-.05.05v.61a.06.06,0,0,0,.05.05h1.19a.06.06,0,0,0,.05-.05v-.61a.06.06,0,0,0-.05-.05Zm-.58-1.17a.28.28,0,0,1,.19.12,1.31,1.31,0,0,1,.08.15,1.13,1.13,0,0,1,.05.22c.13.06.22.22.09.35s0,.13,0,.17,0,.06,0,.06h-.79s0,0,0-.06.09-.06,0-.17,0-.28.09-.35a1.11,1.11,0,0,1,.05-.22,1.24,1.24,0,0,1,.08-.15.28.28,0,0,1,.19-.12h0ZM22.35,67h-.19c-.19,0-.26-.14-.3-.3s-.25-.19-.25-.4a.24.24,0,0,1,.26-.21h0s-.05.09,0,.14.3.13.37.28a.75.75,0,0,1,0,.25c0,.08,0,.08,0,.08h.05V67Zm0,.09h-.23v.34h.23V67.1Zm0,.39h-2v.39h2v-.39Zm3.21,1.79c-.09,0,.18.3.39.37s.09,0,.12.09.06.15.08.17.12,0,.12,0v-.66ZM23,64.55h.06c.13,0,.22.22.26.32a.69.69,0,0,1,0,.22c.14.08.31.36.17.48s0,.13-.12.13H22.7c-.12,0,0,0-.12-.13s0-.4.17-.48a.71.71,0,0,1,0-.22c0-.12.13-.32.26-.32ZM23.82,67H24c.19,0,.26-.14.3-.3s.24-.19.24-.4a.24.24,0,0,0-.26-.21h0s.05.09,0,.14-.3.13-.37.28a.75.75,0,0,0,0,.25c0,.08,0,.08,0,.08h-.05V67Zm-1.47,1h-2v.8h2V68Zm0,.89h-2v.38h2v-.37Zm0,1.08a.67.67,0,0,0-.17-.17,1.06,1.06,0,0,1-.46-.39.31.31,0,0,1,0-.08h.66V70Zm-2,0a.54.54,0,0,1,.16-.17,1.06,1.06,0,0,0,.46-.39.32.32,0,0,0,0-.08h-.65V70Zm0-2.71v.14a.53.53,0,0,0,.21,0,1,1,0,0,0,.3-.13c.05-.08.09-.1.08-.15s0-.1-.1-.14,0-.05,0-.12a.26.26,0,0,0-.3-.1h0v.49ZM19,67.42h-.21c-.18,0-.25-.14-.28-.28s-.25-.25-.25-.45.06-.19.17-.18h0s0,.08,0,.11.35.17.43.32a.67.67,0,0,1,.05.23c0,.08,0,.08,0,.08H19v.16Zm0,1.46h-.27v.38H19v-.37Zm0-1.39h-.3v.39H19v-.39Zm-.06,4s-.28.15-.35.35a.59.59,0,0,0-.05.26.89.89,0,0,0-.47.72,1,1,0,0,0,.08.4,1.4,1.4,0,0,0-.32.39c-.06.18,0,.7.06.7h1v-2.8Zm0,2.94H17.64v.39H19v-.39Zm12.27-5.3s.17.32.37.39.18,0,.19.13a.33.33,0,0,0,.09.21.15.15,0,0,0,.14,0v-.75Zm.84-2.7a1.75,1.75,0,0,1-.58-.12c-.19-.1-.26-.35-.22-.4s.05-.24.18-.32c.28-.15.4.1.53.3s.08.09.09.09h0v.45Zm.19-.5h1.2v8.86h-1.2V65.92Zm-.13-1.14h1.46a.06.06,0,0,1,.06.06v.86a.06.06,0,0,1-.06.06H32.13a.06.06,0,0,1-.06-.06v-.86a.06.06,0,0,1,.06-.06Zm.76-1.42h-.08c-.15,0-.26.19-.31.32a1.11,1.11,0,0,0,0,.27.36.36,0,0,0-.18.5c.09.13,0,.21.1.21h.93c.13,0,0-.08.1-.21a.36.36,0,0,0-.18-.5.66.66,0,0,0,0-.27c-.05-.13-.16-.34-.31-.32Zm.8,2.54v.48H34c.22,0,.24-.34.3-.41s.26-.19.28-.3.05-.08,0-.19-.18-.09-.21-.05a0,0,0,0,1-.05,0,0,0,0,0,0,0,0h0a0,0,0,0,1,0,0,.16.16,0,0,1,.05.09c0,.14-.27.1-.37.18s-.1.13-.15.17a.22.22,0,0,1-.13,0Zm0,.62H34V67h-.36v-.45Zm0,.53h2.41v.39H33.66v-.39Zm0,.5h2.4v1.07h-2.4V67.56Zm0,1.19h2.43v.36H33.64v-.36Zm1.74.53c-.09,0,.18.3.39.37a.18.18,0,0,1,.1.09c0,.05.07.15.08.17s.12,0,.12,0v-.66Zm.86-2.36h1.11v7.9H36.25v-7.9Zm-.08-1.11h1.32a.06.06,0,0,1,.05.06v.79a.06.06,0,0,1-.05.06H36.17a.06.06,0,0,1-.06-.06v-.79a.06.06,0,0,1,.06-.06Zm3.54,1.46h1.07v7.52h-1v-7.1h0v-.4Zm-.08-.83h1.19a.06.06,0,0,1,.05.05v.61a.06.06,0,0,1-.05.05H39.63a.06.06,0,0,1-.05-.05v-.61a.06.06,0,0,1,.05-.05Zm.58-1.17a.28.28,0,0,0-.19.12,1.43,1.43,0,0,0-.08.15,1.07,1.07,0,0,0-.05.22c-.13.06-.22.22-.09.35s0,.13,0,.17,0,.06,0,.06h.79s0,0,0-.06-.09-.06,0-.17,0-.28-.09-.35a1,1,0,0,0-.05-.22,1.48,1.48,0,0,0-.08-.15.28.28,0,0,0-.19-.12h0ZM37.55,67h.19c.19,0,.26-.14.3-.3s.24-.19.24-.4a.24.24,0,0,0-.26-.21h0s.05.09,0,.14-.3.13-.37.28a.75.75,0,0,0,0,.25c0,.08,0,.08,0,.08h-.05V67Zm0,.09h.23v.34h-.23V67.1Zm0,.39h2v.39h-2v-.39Zm-3.21,1.79c.09,0-.18.3-.4.37a.18.18,0,0,0-.1.09c0,.05-.06.15-.08.17s-.12,0-.12,0v-.66Zm2.52-4.72h-.06c-.13,0-.22.22-.26.32a.72.72,0,0,0,0,.22c-.14.08-.31.36-.17.48s0,.13.12.13h.76c.12,0,0,0,.12-.13s0-.4-.17-.48a.72.72,0,0,0,0-.22c0-.12-.13-.32-.26-.32ZM36.08,67h-.19c-.19,0-.26-.14-.3-.3s-.25-.19-.25-.4a.24.24,0,0,1,.26-.21h0s-.05.09,0,.14.3.13.37.28a.75.75,0,0,1,0,.25c0,.08,0,.08,0,.08h.05V67Zm1.47,1h2v.8h-2V68Zm0,.89h2v.38h-2v-.37Zm0,1.08a.67.67,0,0,1,.17-.17,1.07,1.07,0,0,0,.46-.39.32.32,0,0,0,0-.08h-.66V70Zm2,0a.54.54,0,0,0-.15-.17,1.06,1.06,0,0,1-.46-.39.32.32,0,0,1,0-.08h.65V70Zm0-2.71v.14a.53.53,0,0,1-.21,0,1,1,0,0,1-.3-.13c-.05-.08-.09-.1-.08-.15s0-.1.1-.14,0-.05,0-.12a.26.26,0,0,1,.3-.1h0v.49Zm1.33.17h.21c.18,0,.25-.14.29-.28s.24-.25.24-.45-.06-.19-.17-.18h0s0,.08,0,.11-.35.17-.43.32a.67.67,0,0,0-.05.23c0,.08,0,.08,0,.08h-.05v.16Zm0,1.46h.27v.38h-.27v-.37Zm0-1.39h.3v.39h-.3v-.39Zm.07,4s.28.15.35.35a.59.59,0,0,1,.05.26.89.89,0,0,1,.46.72,1,1,0,0,1-.08.4,1.4,1.4,0,0,1,.32.39c.06.18,0,.7-.06.7H41v-2.8Zm0,2.94h1.32v.39H40.95Z" transform="translate(-0.83 -34.74)"/><path class="cls-38" d="M6,55.25s-.19-.26-.23-.06-.12.35-.18.35-.27-.06-.26-.14.1-.35,0-.36-.53-.15-.53-.15-.3-.06-.34-.21a.79.79,0,0,1,.08-.58c.12-.17.18-.09.25-.1a.21.21,0,0,1,.28.09c.12.17.5.47.45.3a4.8,4.8,0,0,0-.23-.84c-.18-.41-.52-.76-.46-.92a.53.53,0,0,1,.41-.35c.12,0,.37.21.37.21a2.76,2.76,0,0,0,.05.63,3.8,3.8,0,0,1,.15,1c0,.22-.08.54.17.57s.83.86.76.49c0-.17,0-.15-.07-.25s-.37-.55-.21-.55.37,0,.22-.14-.36-.47-.44-.56-.28-.34-.12-.43a.22.22,0,0,1,.35.08c.06.1.09.26.21.31s.16.13.13-.05A3.89,3.89,0,0,0,6.64,53a.63.63,0,0,1,.15-.4c.08-.08.12.08.14.19a4.22,4.22,0,0,1,.13.61,4.71,4.71,0,0,0,0,.49c.08.13.56,1,.63,1.12s.09,0,.12,0,0,0,0-.05a8.78,8.78,0,0,1,0-1.74c.08-.19.1-.36.19-.33a.67.67,0,0,1,.25.39,1.11,1.11,0,0,1-.14.43,4.92,4.92,0,0,0,0,1.15l0,.28c.12.05,1,.57,1.11.46s0-.05,0-.09,0-.49.15-.52.31.08.28.22-.17.52,0,.58,1.26.35,1.47.4.88.32.61.57-.5.36-.61.35-.21,0-.14-.12.12-.19-.48-.46-.79-.37-.8-.3a.94.94,0,0,0,.12.51c.07,0,.39.35.14.56s-.57.13-.57,0,0-.09,0-.17a5.42,5.42,0,0,1-.15-.8c0-.22,0-.26,0-.26l-1-.37s-.14-.05-.09.21a8.06,8.06,0,0,0,.39,1.6c.25.68.44.73.35,1s-.27.52-.28.43-.26,0-.31-.13a10.88,10.88,0,0,1-.41-2.75c0-.31-.06-.54-.06-.54s-.63-.35-.71-.41,0,.28,0,.66a2.85,2.85,0,0,0,0,.36c.08.22.17.52,0,.61-.59.27-.37-.75-.44-.92s-.08,0-.12-.08A5.88,5.88,0,0,0,6,55.25Z" transform="translate(-0.83 -34.74)"/><path class="cls-38" d="M15.29,48.08v.1s0,0,0-.09Z" transform="translate(-0.83 -34.74)"/><path class="cls-38" d="M36.88,39.51s-.08-.09-.05-.14.23-.12.42,0a2.23,2.23,0,0,0,1.2.39,5.52,5.52,0,0,0,1,0,3,3,0,0,1,.59.41.52.52,0,0,1-.16.4c-.09.08-.76.55-1.24,1a4.54,4.54,0,0,0-.58.61c-.12.18.15.1.44.05.08,0,.12-.13.18-.12a1,1,0,0,1,.39.26c.07.08,0,.5-.57.43a3.85,3.85,0,0,0-1.6.19,5.43,5.43,0,0,0-1.48.57c-.21.17-.49-.1-.77-.26a.55.55,0,0,1-.26-.3c-.06-.22-.05-.52.12-.5a2.75,2.75,0,0,1,.54.05c.32.06.14.06.62-.06s.92-.21,1-.25S38,41.14,38.18,41s1.16-.8,1-.86a5.87,5.87,0,0,0-1.32.24c-.07,0-.07.13-.13.14a.65.65,0,0,1-.64-.3A1.34,1.34,0,0,1,36.88,39.51Z" transform="translate(-0.83 -34.74)"/><path class="cls-38" d="M35.62,87l.45,2.08.36-.1L36,86.9l.28-2.54-.36.1-.22,2-.79-1.72-.37.1Zm-3.86-.52h-.35c0-.5-.14-.79-.47-.8s-.54.27-.54.8a.68.68,0,0,0,.28.59c.06,0,.13.09.23.13l.24.12a1.09,1.09,0,0,1,.67,1.12c0,.8-.34,1.25-.93,1.28a.81.81,0,0,1-.83-.66,2.39,2.39,0,0,1-.06-.8h.32q-.06,1.08.58,1c.37,0,.57-.27.57-.75a.69.69,0,0,0-.41-.74l-.26-.14a2.52,2.52,0,0,1-.41-.24,1.09,1.09,0,0,1-.34-1c0-.76.3-1.2.83-1.21s.88.45.86,1.24Z" transform="translate(-0.83 -34.74)"/><path class="cls-38" d="M26.6,80.88c0-.12,0-.19-.08-.21a1.46,1.46,0,0,0-.26,0l0-.06a2.83,2.83,0,0,0,.7-.15l-.5,1.9c0,.1,0,.17.23.22l0,.08-.86-.23,0-.08c.22.06.34.05.37,0Z" transform="translate(-0.83 -34.74)"/><path class="cls-38" d="M30.58,81a.79.79,0,0,1,.09-.33c.48-.62,1.29.27.53.8,1,.45.09,1.66-.53,1.21-.08-.06-.1-.12-.06-.21s.26-.1.32.1a.49.49,0,0,0,.35-.84.58.58,0,0,0-.41-.13v-.08a.35.35,0,0,0,.27-.14.43.43,0,0,0,.13-.34.57.57,0,0,0-.08-.28A.23.23,0,0,0,31,80.7c-.21,0-.28.19-.31.32Z" transform="translate(-0.83 -34.74)"/><path class="cls-39" d="M28.91,81.68c.2-.16.11-.64,0-.83s-.12-.19-.23-.21h-.09c-.15,0-.22.19-.23.5s0,.66.33.61A.39.39,0,0,0,28.91,81.68Zm-.69,1.08v-.08a1,1,0,0,0,.49-.31,1.61,1.61,0,0,0,.27-.65.55.55,0,0,1-.27.17h-.15a.38.38,0,0,1-.26-.21,1,1,0,0,1,0-.94.44.44,0,0,1,.39-.26h0c.31,0,.54.43.55.92v.09a1.28,1.28,0,0,1-.59,1.1A1.36,1.36,0,0,1,28.22,82.76Z" transform="translate(-0.83 -34.74)"/><path class="cls-38" d="M7.18,69.9a10.24,10.24,0,0,0,1.12-.33,1.25,1.25,0,0,0,.39-.25.65.65,0,0,0,.17-.25.4.4,0,0,0-.3-.45,1.15,1.15,0,0,0-.45-.05,6.09,6.09,0,0,0-1.26.21,6.87,6.87,0,0,0-1.1.35,1.78,1.78,0,0,0-.4.24.51.51,0,0,0-.17.4c0,.25.21.26.31.3A4.13,4.13,0,0,0,7.18,69.9Zm1.69-.19a6,6,0,0,1-1.61.62l-.41.08a4.16,4.16,0,0,1-1.46.06.68.68,0,0,1-.56-.62.73.73,0,0,1,.28-.78,4,4,0,0,1,1.73-.73,7.12,7.12,0,0,1,1.43-.17,1.26,1.26,0,0,1,.59.13.8.8,0,0,1,.38.53A.81.81,0,0,1,8.87,69.7Z" transform="translate(-0.83 -34.74)"/><path class="cls-38" d="M6.84,72.84a1.27,1.27,0,0,1-.88,0,.78.78,0,0,1-.27-.23.87.87,0,0,1-.15-.31,1.15,1.15,0,0,1,0-.74,1.22,1.22,0,0,1,.23-.33A1.14,1.14,0,0,1,6.17,71l3.29-1.07.12.37-3.3,1.12a.56.56,0,0,0-.39.74.54.54,0,0,0,.7.31L9.91,71.3l.14.4Z" transform="translate(-0.83 -34.74)"/><polygon class="cls-38" points="8.04 38.77 6.01 39.6 5.61 39.75 5.45 39.34 6.01 39.11 8.04 38.31 9.21 37.83 8.95 37.26 9.3 37.12 10 38.68 9.65 38.82 9.37 38.22 8.04 38.77"/><polygon class="cls-38" points="8.04 40.24 6.26 41.11 6.06 40.75 8.04 39.84 10.12 38.88 10.3 39.25 8.66 40.01 9.22 41.07 10.88 40.26 11.11 40.6 8.04 42.22 7.16 42.68 6.94 42.32 8.04 41.73 8.88 41.27 8.24 40.14 8.04 40.24"/><path class="cls-38" d="M12.78,78.48l-.17.14-.18-.37a1.67,1.67,0,0,0,.31-.27.72.72,0,0,0,.18-.44.4.4,0,0,0-.46-.41,2,2,0,0,0-.58.19,6.59,6.59,0,0,0-1.65,1.17,1.93,1.93,0,0,0-.32.4.6.6,0,0,0-.09.3.5.5,0,0,0,.05.23.43.43,0,0,0,.12.15.33.33,0,0,0,.18.06.68.68,0,0,0,.28-.06,1.39,1.39,0,0,0,.43-.23l.18.36a1.55,1.55,0,0,1-.91.36.66.66,0,0,1-.58-.43,1,1,0,0,1,0-1,5.91,5.91,0,0,1,2.3-1.82,1.93,1.93,0,0,1,.58-.16.65.65,0,0,1,.32,0,.79.79,0,0,1,.41.39,1,1,0,0,1,.05.77A1.35,1.35,0,0,1,12.78,78.48Z" transform="translate(-0.83 -34.74)"/><polygon class="cls-38" points="13.28 46.76 11.95 47.96 11.72 48.18 11.43 47.88 11.95 47.42 13.28 46.2 14.26 45.3 14.68 44.91 14.99 45.2 14.26 45.85 13.28 46.76"/><polygon class="cls-38" points="14.26 49.37 13.77 49.87 13.43 49.61 14.26 48.14 15.37 46.15 14.26 47.27 13.28 48.27 12.61 48.94 12.24 48.63 13.28 47.64 14.26 46.67 15.41 45.55 15.9 45.96 14.61 48.36 16.53 46.46 16.59 46.4 16.93 46.64 16.53 47.06 14.26 49.37"/><path class="cls-38" d="M17.36,82.8l1-1,.4.28-1.43,3.13-.43.92-.36-.22.7-1.44L16.64,84l-1.25,1.21L15,84.95Zm0,1.24.09.08.74-1.6-.83.8-.41.39Z" transform="translate(-0.83 -34.74)"/><path class="cls-38" d="M21.06,83.86l.18-.45.34.17-.52,1.37-.68,1.82a1,1,0,0,1-.85.71A1.05,1.05,0,0,1,18.8,86L20,82.8l.35.17-1.21,3.21a.75.75,0,0,0,0,.5.41.41,0,0,0,.61.3.64.64,0,0,0,.3-.36Z" transform="translate(-0.83 -34.74)"/><polygon class="cls-38" points="22.39 50.77 21.56 53.84 21.2 53.73 21.23 49.53 20.23 52.8 20.08 53.33 19.73 53.19 20.23 51.48 21 48.94 21.56 49.16 21.51 52.6 22.35 49.42 22.39 49.43 22.71 49.55 22.39 50.77"/><polygon class="cls-38" points="22.39 52.45 22.98 49.66 23.34 49.75 22.42 54.09 22.39 54.07 22.05 54 22.39 52.45"/><polygon class="cls-38" points="25.21 50.18 25.34 50.22 25.21 50.63 24 54.47 23.62 54.4 23.56 49.8 23.93 49.93 23.96 53.51 24.97 50.14 25.21 50.18"/><polygon class="cls-38" points="25.21 53.6 25.62 50.26 27.08 50.46 27.03 50.9 25.95 50.73 25.77 52.19 26.59 52.31 26.54 52.74 25.73 52.63 25.5 54.28 26.67 54.42 26.62 54.86 25.21 54.67 25.07 54.66 25.21 53.6"/><path class="cls-38" d="M33.5,81.75l-.26-1.08-.36,1.24Zm-.14-1.46.35,1.42.18-.05.05.21-.18.05.14.63-.19,0L33.55,82l-.75.18-.05-.23.5-1.59Z" transform="translate(-0.83 -34.74)"/><path class="cls-38" d="M28.93,85.22H29a.81.81,0,0,1,.36.12,1,1,0,0,1,.26.27,1,1,0,0,1,.13.35,1.85,1.85,0,0,1,0,.37,1.52,1.52,0,0,1-.27,1,.86.86,0,0,1-.28.2l.49,2.23-.41,0-.39-1.85-.06-.28-.39,0-.09,2.12H28l.19-4.46Zm0,1.91A.46.46,0,0,0,29.2,87a1.32,1.32,0,0,0,.17-.59.88.88,0,0,0-.12-.49.41.41,0,0,0-.32-.22h-.36l-.08,1.48h.44Z" transform="translate(-0.83 -34.74)"/><polygon class="cls-38" points="31.82 53.76 31.92 54.85 31.82 54.86 31.55 54.9 31.16 50.45 31.53 50.4 31.82 53.76"/><polygon class="cls-38" points="31.82 50.37 33.51 50.13 33.56 50.51 32.84 50.66 33.34 54.64 32.98 54.71 32.48 50.71 31.82 50.8 31.77 50.8 31.73 50.38 31.82 50.37"/><path class="cls-38" d="M39,87.21a.79.79,0,0,0,.13.15.46.46,0,0,0,.23.14.43.43,0,0,0,.4-.17,1.24,1.24,0,0,0,.06-.81s0-.08,0-.12c-.07-.27-.19-.71-.28-1a9.83,9.83,0,0,0-.37-.94,1.75,1.75,0,0,0-.27-.41.43.43,0,0,0-.46-.1.36.36,0,0,0-.17.14.53.53,0,0,0-.11.28,1.78,1.78,0,0,0,0,.52c0,.22.19.66.3,1s.3.86.39,1.06A2.29,2.29,0,0,0,39,87.21Zm.7.66a.67.67,0,0,1-.81-.17A5.51,5.51,0,0,1,38.12,86a5.17,5.17,0,0,1-.35-1.72.87.87,0,0,1,.52-.76.73.73,0,0,1,.83.17,4.28,4.28,0,0,1,.7,1.33,1.17,1.17,0,0,1,.06.21,5.38,5.38,0,0,1,.35,1.83A1,1,0,0,1,39.71,87.87Z" transform="translate(-0.83 -34.74)"/><polygon class="cls-38" points="38.98 48.16 39.91 47.67 40.09 48.06 39.06 48.6 39.53 49.75 40.44 49.27 40.59 49.66 39.69 50.15 40.54 52.37 40.19 52.55 38.98 49.47 38.55 48.4 38.98 48.16"/><polygon class="cls-38" points="43.35 49.08 44.08 50.27 43.75 50.49 43.35 49.83 41.66 47.03 41.03 47.47 40.82 47.12 42.37 46.01 42.59 46.37 41.98 46.81 43.35 49.08"/><polygon class="cls-38" points="43.35 45.2 43.82 44.8 44.04 45.15 43.35 45.74 43.16 45.91 43.35 46.26 43.87 47.13 44.55 46.54 44.78 46.89 44.09 47.48 45.04 49.07 45.22 48.9 45.98 48.24 46.2 48.59 45.22 49.44 44.97 49.67 43.35 47.02 42.63 45.82 43.35 45.2"/><path class="cls-38" d="M46.06,78.62a1.59,1.59,0,0,1,.64.54l-.27.3a2.4,2.4,0,0,0-.28-.31.38.38,0,0,0-.56,0,.54.54,0,0,0-.13.5,1.85,1.85,0,0,0,.19.48A10,10,0,0,0,47,81.95a1.55,1.55,0,0,0,.39.27A.44.44,0,0,0,48,82a.77.77,0,0,0-.12-.63c-.06-.1-.14-.22-.23-.34l.23-.23.05-.05a2,2,0,0,1,.45,1,.86.86,0,0,1-.27.75.76.76,0,0,1-.81.17,4.45,4.45,0,0,1-1.21-1.16,5.33,5.33,0,0,1-1-1.7.94.94,0,0,1,.24-.92.66.66,0,0,1,.65-.23Z" transform="translate(-0.83 -34.74)"/><polygon class="cls-38" points="47.02 45.37 45.22 43.47 45.15 43.4 45.22 43.31 45.4 43.08 46.84 44.53 47.02 44.32 47.53 43.69 47.02 43.16 46.09 42.24 46.33 41.92 47.02 42.63 48.73 44.41 49.47 45.19 49.21 45.49 48.73 44.97 47.8 43.97 47.11 44.82 48.48 46.32 48.22 46.63 47.02 45.37"/><polygon class="cls-38" points="48.73 42.5 47.17 41.78 48.73 43.17 50.06 44.36 49.83 44.69 48.73 43.71 47.02 42.18 46.5 41.71 46.89 41.17 47.02 41.24 48.73 42.09 49.84 42.64 48.73 41.64 47.39 40.44 47.6 40.09 48.73 41.08 50.96 43.08 50.73 43.43 48.73 42.5"/><path class="cls-38" d="M49.56,74.94a8.6,8.6,0,0,0,.92.71,6.2,6.2,0,0,0,.87.53,2.67,2.67,0,0,0,.57.24.42.42,0,0,0,.26-.05.54.54,0,0,0,.15-.18.55.55,0,0,0,.06-.25.93.93,0,0,0-.37-.67c-.15-.14-.7-.56-.94-.74s-.77-.53-1-.62-.51-.23-.7-.08a.54.54,0,0,0-.15.19.59.59,0,0,0,0,.53A1.51,1.51,0,0,0,49.56,74.94Zm2.54,1.9a.42.42,0,0,1-.22,0,4.82,4.82,0,0,1-1.6-.83c-.23-.17-.49-.37-.72-.57a2.81,2.81,0,0,1-.62-.68,1,1,0,0,1,0-1,.78.78,0,0,1,.62-.45h.13a5.07,5.07,0,0,1,1.57.81c.26.19.57.44.84.68a2.82,2.82,0,0,1,.53.61,1,1,0,0,1,0,1A.75.75,0,0,1,52.11,76.84Z" transform="translate(-0.83 -34.74)"/><polygon class="cls-38" points="51.27 39.49 48.73 38.02 48.68 38 48.73 37.88 48.84 37.61 51.27 39.03 52.35 39.65 52.82 38.54 53.16 38.72 52.51 40.22 51.27 39.49"/><path class="cls-38" d="M52.11,70.44c.22.07.45.14.65.22a3.83,3.83,0,0,1,1.35.81,1.19,1.19,0,0,1,.3,1,.88.88,0,0,1-.77.53,3.23,3.23,0,0,1-1.51-.3,5.39,5.39,0,0,1-1.6-.92,1.17,1.17,0,0,1-.27-1,.84.84,0,0,1,.74-.57A3.15,3.15,0,0,1,52.11,70.44Zm0,1.82.14.05a5.41,5.41,0,0,0,.86.27,1.84,1.84,0,0,0,.45,0c.59-.07.61-.56.25-.89a1.84,1.84,0,0,0-.36-.26,6.52,6.52,0,0,0-1.95-.76,1.46,1.46,0,0,0-.45,0c-.53.09-.55.53-.26.85a1.56,1.56,0,0,0,.36.31A10.08,10.08,0,0,0,52.11,72.26Z" transform="translate(-0.83 -34.74)"/><path class="cls-38" d="M52.11,68.21h.08l-.08.42a1.05,1.05,0,0,0-.55,0,.42.42,0,0,0-.26.57.41.41,0,0,0,.16.23,1.13,1.13,0,0,0,.4.25l.26.1a4.79,4.79,0,0,0,2.36.3.49.49,0,0,0,.23-.13.47.47,0,0,0,.09-.22.4.4,0,0,0-.19-.48,1.16,1.16,0,0,0-.28-.13c-.1,0-.7-.14-.85-.19l-.1.52L53,69.34l.18-1,2.15.48-.06.33L55,69.13a.86.86,0,0,1,.15.71.77.77,0,0,1-.59.64,5.51,5.51,0,0,1-2.44-.27,2.89,2.89,0,0,1-.92-.45,1.07,1.07,0,0,1-.35-.88.81.81,0,0,1,.57-.67,1,1,0,0,1,.37-.05A1.45,1.45,0,0,1,52.11,68.21Z" transform="translate(-0.83 -34.74)"/><polygon class="cls-38" points="51.27 32.04 50.45 31.62 50.49 31.2 51.27 31.61 52.68 32.33 54.75 32.71 54.68 33.13 52.66 32.77 51.27 33.06 50.18 33.29 50.26 32.85 51.27 32.67 52.2 32.49 51.27 32.04"/><path class="cls-38" d="M13.7,48s.05-.18.22-.17c.32,0,1.65,1.12,1.61,1.39,0,.09-.4.58-.53.54s-.23-.31-.32-.49A9.43,9.43,0,0,0,13.7,48Zm1.6-1.47a.93.93,0,0,0-.15.34A.08.08,0,0,1,15,47h0l-.15.1c-.1.06-.23,0-.27-.14s.34-.32.31-.43a.38.38,0,0,1,.12-.27.28.28,0,0,1,.17-.09.23.23,0,0,1,.13,0c.09,0,.17.1.13.17Zm0,.9-.13-.14a.4.4,0,0,1,.13-.1l.35-.25s0-.39,0-.45.16-.12.22-.08.05,0,.05.1a3.27,3.27,0,0,0,0,.58c.05.09.62.74.62.74s.23.35,0,.39a.65.65,0,0,1-.61-.19c-.21-.21-.26-.26-.34-.15s-.23.28-.3.27v-.1a1.28,1.28,0,0,1,.22-.39ZM12.66,47a1,1,0,0,1-.08.43.39.39,0,0,1-.26.12c-.08,0,0-.05-.1,0s-.5.1-.36-.17.18-.23.22-.37.17-.67.22-.91.23-.79.23-.79.09-.18-.19-.61-.44-.72-.53-.84-.1-.23,0-.23l1,.13c.08,0,.13,0,.18-.13s.09-.41.23-.27a.75.75,0,0,1,.27.79,1.54,1.54,0,0,0-.06,1.08c.13.49.13.85.19.92s.13.37.21.31a1.11,1.11,0,0,0,.3-.8A1.46,1.46,0,0,0,14,45c-.08-.21,0-.39.1-.43a15.69,15.69,0,0,1,.41-1.55c.09-.17.26-.3.35-.13s.1.18.17.3l.3.41c.18.26.4.52.61.77.37.45.76.89,1,1.19.72.77,1.12,1.23,1.12,1.23a.49.49,0,0,1-.43.46,5.54,5.54,0,0,1-1.17,0c-.06,0-.06,0,.13-.15s.58-.17.57-.31a15.05,15.05,0,0,0-1.25-1.55c-.17-.21-.39-.53-.61-.84l-.3-.44-.27-.43c-.05-.1-.14-.22-.22.3s-.14.62,0,.66.35.12.26.47-.35.63-.32.75,0,.41.1.52,0,.35-.13.34l-.32,0v.77s-.52.46-.46.23a4.5,4.5,0,0,0,.19-.66c0-.18-.25-.26-.32-.45s-.37-.88-.5-.79a2.14,2.14,0,0,0-.31,1A.68.68,0,0,1,12.66,47Z" transform="translate(-0.83 -34.74)"/><path class="cls-38" d="M30,45.48a18.41,18.41,0,0,1,5.19,36.07L34.79,81a17.75,17.75,0,1,0-9.6,0l-.39.57A18.41,18.41,0,0,1,30,45.48Z" transform="translate(-0.83 -34.74)"/><path class="cls-38" d="M30,92.4A28.52,28.52,0,1,0,9.84,84,28.43,28.43,0,0,0,30,92.4Zm0-57.66A29.16,29.16,0,1,1,9.37,43.28,29.07,29.07,0,0,1,30,34.74Z" transform="translate(-0.83 -34.74)"/><path class="cls-38" d="M53.4,54.35l0,0c-.18-.12-.21.14-.17.21a.84.84,0,0,0,.17.13h0a.18.18,0,0,1,.13.05c.06.06.08,0,.09-.1S53.55,54.45,53.4,54.35Zm-.32-.14c0-.08-.05-.14-.18-.1a.28.28,0,0,0-.21.31,1.29,1.29,0,0,0,.3,0,.3.3,0,0,0,.09-.18Zm0-.32a.33.33,0,0,0,0,.16l.1.08a.12.12,0,0,0,.18,0l0,0s0-.1,0-.18a.57.57,0,0,1-.06-.13c-.06-.12-.1,0-.22,0A.07.07,0,0,0,53.07,53.88Zm0,1.73a.5.5,0,0,0-.19,0c-.08,0-.57,0-.47-.12a.44.44,0,0,1,.32-.09c.08,0,.21-.16-.12-.27s-.55-.14-.59-.23.12-.14.23-.09.45.14.46,0a.3.3,0,0,0-.27-.31,6,6,0,0,1-.88-.13c-.14-.06-.26,0-.14-.17s.13-.15.22-.19.23-.23.32-.44.15-.4.23-.26.1.27.06.36a3.66,3.66,0,0,1-.17.46c-.06.09.17.14.39-.09a8,8,0,0,0,.58-.7l.09-.17c.06-.17.15-.23.23-.18a.09.09,0,0,1,.05.06.3.3,0,0,1,0,.3.62.62,0,0,0,0,.1.24.24,0,0,0,0,.17.89.89,0,0,1,.3.28c.09.14.09.28.18.31s1.12.27,1.43.08.34-.13.35-.21.28-.06.27.28,0,.45-.15.44-.19.14-.45,0a8.1,8.1,0,0,0-.8-.3c-.21-.07-.34-.08-.43.05s0,.22,0,.34.09.23.23.27.67.46.89.54.13.31.12.4a.44.44,0,0,1-.31.31.79.79,0,0,1-.49,0,3.51,3.51,0,0,0-1.07-.31H53.4c-.14,0-.25,0-.32,0s-.17,0-.19.09.17.45,0,.49-.26.17-.61-.17a1.73,1.73,0,0,0-.84-.45c-.25-.09-.68-.22-.56,0s.21.28.31.3a.65.65,0,0,1,.21.71c-.13.25-.18.13-.48,0s-.55-.3-.61-.35.25,0,.35,0,.23,0,.08-.17-.31-.17-.44,0a2.82,2.82,0,0,1-.4.3c-.17.06-.77.43-.9.48s-.57.1-.61-.09,0-.19,0-.34-.12-.59-.13-.65.06-.25.17-.08.22.56.34.59a1.53,1.53,0,0,1,.18-.08,2.4,2.4,0,0,0,.41-.08,5.92,5.92,0,0,0,.52-.34c.15-.1.22-.14,0-.39s-.93-.46-1.17-.88a2.07,2.07,0,0,1-.19-.41c0-.06.16-.17.21-.17s.17.18.22.25a1.29,1.29,0,0,0,.53.49c.06,0,.12,0,.23.08a3.71,3.71,0,0,1,.58.32.62.62,0,0,0,.46.14c.15,0,.32.18.44.23a1.65,1.65,0,0,0,.76.13c.17-.06.23-.06.12-.1a4,4,0,0,1-1-.89s-.26-.12-.27-.14c-.12-.25.14-.28.34-.08a2.05,2.05,0,0,0,.57.5,2,2,0,0,1,.61.36c.25.22.31.31.4.3a2.17,2.17,0,0,1,.43,0l.32,0c.3,0,.72,0,.89.08s.41,0,.36-.1-.31-.33-.41-.44-.32-.37-.41-.12-.06.31-.23.36a.5.5,0,0,1-.19,0,.53.53,0,0,1-.23-.06A.17.17,0,0,0,53.07,55.61ZM53,55.34l.09,0,.18,0a.27.27,0,0,0,.14,0,1.16,1.16,0,0,1,.23-.1c.1,0,0-.22-.12-.25H53.4a.63.63,0,0,1-.22,0,.13.13,0,0,0-.1,0A.34.34,0,0,0,53,55.34Z" transform="translate(-0.83 -34.74)"/><path class="cls-37" d="M31.87,55.23a.42.42,0,0,1,0,.09l0,0a.07.07,0,0,1,.05,0l.22.12a2.71,2.71,0,0,1,.39.36l.14.17a1.37,1.37,0,0,1,.23.48l.09,0a4.55,4.55,0,0,0,.61.12h.24a1.87,1.87,0,0,0,1-.49,4.62,4.62,0,0,1,1-.46,7.24,7.24,0,0,1-.61-.62,3,3,0,0,0-.48-.72,1.4,1.4,0,0,0-.9-.37h-.15a1.39,1.39,0,0,0-1,.28,1.29,1.29,0,0,0-.21.15,1.3,1.3,0,0,0-.32.37A3.43,3.43,0,0,0,31.87,55.23Zm-2,4.15c-.08-.05-.27-.27-.71-.68a1.44,1.44,0,0,0-.59-.36c0,.06.05.18.12.36.19.45.66,1,1.19,1a1.5,1.5,0,0,0,1.19-1c.08-.18.1-.3.13-.36a1.37,1.37,0,0,0-.59.36C30.18,59.11,30,59.33,29.9,59.38Zm-2.21-3.24a1.52,1.52,0,0,0-.27.54.92.92,0,0,0,.27.76.93.93,0,0,0,.22.18l.18.08.21.05a2.7,2.7,0,0,1,.85.27,6,6,0,0,1,.75.66,7.12,7.12,0,0,1,.75-.66,2.93,2.93,0,0,1,.85-.27l.22-.05.15-.08a.73.73,0,0,0,.22-.18.92.92,0,0,0,.27-.76,1.2,1.2,0,0,0-.27-.54,1.56,1.56,0,0,0-.22-.19,1.09,1.09,0,0,0-.37-.17l-.3,0a2.36,2.36,0,0,0-1.11.54.24.24,0,0,1-.19,0,.22.22,0,0,1-.18,0,2.48,2.48,0,0,0-1.12-.54l-.3,0a1.45,1.45,0,0,0-.39.17A1.57,1.57,0,0,0,27.69,56.14Zm-.52-4.7L27,51.38l-.16-.08a3.25,3.25,0,0,0-.08.49,1.82,1.82,0,0,1-.16.61,2.09,2.09,0,0,0-.21,1,3,3,0,0,1,.81.18,1.76,1.76,0,0,1,.52.32,1.2,1.2,0,0,1,.22.22,2.46,2.46,0,0,1,.32.49.5.5,0,0,1,.07.12,2,2,0,0,1,.19.5,1.32,1.32,0,0,1,.45.05,1.07,1.07,0,0,0-.05-.14,3.47,3.47,0,0,0-.39-.68l.44-.31a3.83,3.83,0,0,1,.41.72,2.47,2.47,0,0,1,.16.43,1.69,1.69,0,0,0,0,.23l.08.05V54.17h.55v1.42l.08-.05a1.27,1.27,0,0,1,0-.23,2.33,2.33,0,0,1,.14-.43,4.4,4.4,0,0,1,.43-.72l.44.31a2.48,2.48,0,0,0-.39.68,1.15,1.15,0,0,0-.06.14,1.44,1.44,0,0,1,.46-.05,1.83,1.83,0,0,1,.18-.5l.06-.12a4.67,4.67,0,0,1,.31-.49,1.77,1.77,0,0,1,.22-.22,2,2,0,0,1,.53-.32,2.39,2.39,0,0,1,.8-.17,2.1,2.1,0,0,0-.19-1,1.84,1.84,0,0,1-.17-.61A3.87,3.87,0,0,0,33,51.3a.6.6,0,0,0-.17.08l-.21.06-.53.12-.22,0-.24.08-.13,0c-.58.24-1,.86-1.6,1-.57-.13-1-.75-1.6-1l-.13,0-.26-.08-.22,0Zm0,6.26a1.52,1.52,0,0,1-.25-.57.08.08,0,0,1,0-.05,2.1,2.1,0,0,1-.65.13,1.72,1.72,0,0,1-.27,0l-.45-.08c-.27,0-.5-.31-.83-.5a6,6,0,0,0-1.17-.54c-.36-.12-.39-.26-.37-.36s.22-.28.62-.59.55-.79.92-1.15a2.36,2.36,0,0,1,.73-.48,2,2,0,0,1,.36-.06,2.49,2.49,0,0,1,0-.68c.05-.14.12-.27.17-.41a3.84,3.84,0,0,0,.27-1.3c0-.1,0-.3.08-.32s.28-.12.44,0a1.58,1.58,0,0,0,.39.15,1.19,1.19,0,0,0,.28.08l.23.05.22.05a2.87,2.87,0,0,1,.39.12h0a6.65,6.65,0,0,1,1.55,1,7.81,7.81,0,0,1,1.59-1,3.67,3.67,0,0,1,.4-.13,1.26,1.26,0,0,0,.22-.05l.25-.05a1.38,1.38,0,0,0,.28-.08A2.13,2.13,0,0,0,33,50.7c.16-.09.34,0,.44,0s.08.22.08.32a3.58,3.58,0,0,0,.27,1.3l.15.41a3.21,3.21,0,0,1,0,.68,1.82,1.82,0,0,1,.35.06,2.58,2.58,0,0,1,.75.48c.35.36.49.84.9,1.15s.62.49.63.59,0,.24-.37.36a6.55,6.55,0,0,0-1.19.54c-.31.19-.55.46-.81.5l-.45.08a1.73,1.73,0,0,1-.27,0,2.57,2.57,0,0,1-.63-.12s0,0,0,0a1.75,1.75,0,0,1-.24.57,1.25,1.25,0,0,1-.53.44l-.22.08a5.84,5.84,0,0,1-.37.83,2.72,2.72,0,0,1-.49.66,1.7,1.7,0,0,1-1.11.52,1.73,1.73,0,0,1-1.11-.52A3.14,3.14,0,0,1,28.3,59a4.61,4.61,0,0,1-.35-.83h0l-.22-.08A1.22,1.22,0,0,1,27.18,57.7ZM26,56.63h.23a4.84,4.84,0,0,0,.62-.12l.08,0a1.4,1.4,0,0,1,.25-.48.62.62,0,0,1,.14-.17,3.38,3.38,0,0,1,.37-.36l.22-.12.06,0,0,0,0-.09a2.32,2.32,0,0,0-.22-.46,1.27,1.27,0,0,0-.31-.37l-.21-.15a1.43,1.43,0,0,0-1-.28H26a1.37,1.37,0,0,0-.9.37,3.11,3.11,0,0,0-.49.72,5.81,5.81,0,0,1-.59.62,4.58,4.58,0,0,1,1,.46A1.79,1.79,0,0,0,26,56.63Zm5.5-2.58A.46.46,0,0,1,31,53.6a.45.45,0,0,1,.45-.45.39.39,0,0,1,.37.22.39.39,0,0,1,0,.47A.41.41,0,0,1,31.5,54.05Zm-1.6-.27a.46.46,0,0,1,0-.92.46.46,0,1,1,0,.92Zm-2,.05a.45.45,0,0,1-.06-.23.45.45,0,0,1,.06-.23.45.45,0,0,1,.84.23.45.45,0,0,1-.45.45A.47.47,0,0,1,27.91,53.83Z" transform="translate(-0.83 -34.74)"/><path class="cls-38" d="M8.87,66.8a1.24,1.24,0,0,1-.05.57,1,1,0,0,1-.54.46A1.66,1.66,0,0,1,8,67.9l0-.43.17,0,.19-.06a.43.43,0,0,0,.22-.4.62.62,0,0,0-.15-.41c-.48-.52-1-.12-1.51.41s-.76,1-1,1.16a1,1,0,0,1-.54.17,1.1,1.1,0,0,1-.53-.14.75.75,0,0,1-.26-.25,1.21,1.21,0,0,1-.05-1,1,1,0,0,1,.3-.34,1.11,1.11,0,0,1,.34-.16l.31-.06,0,.44a1,1,0,0,0-.58.19.59.59,0,0,0,0,.79.59.59,0,0,0,.35.08.8.8,0,0,0,.26-.05.59.59,0,0,0,.18-.13c.36-.39.71-.89,1.12-1.25A1.62,1.62,0,0,1,8.24,66,1,1,0,0,1,8.87,66.8Z" transform="translate(-0.83 -34.74)"/><polygon class="cls-38" points="14.26 44.5 14.3 44.54 14.26 44.57 13.28 45.44 11.95 46.6 11.04 47.4 10.99 47.46 10.71 47.18 11.04 46.9 11.95 46.1 12.41 45.7 11.95 45.12 11.74 44.85 11.04 45.4 9.91 46.31 9.63 45.98 11.04 44.85 11.95 44.11 13.04 43.24 13.28 43.49 13.33 43.56 13.28 43.6 12.05 44.59 12.72 45.44 13.28 44.94 14.03 44.26 14.26 44.5"/><path class="cls-38" d="M25.8,38.76l-.39.21a1.23,1.23,0,0,1,.45-.75,7.27,7.27,0,0,1,1-.93c.21-.08.55-.1.55.13a2.21,2.21,0,0,1-.18.8c-.08.17-.27,1.83-.28,2s-.39.37-.49.41-.1.23-.08.62,0,.48.17.47.55-.14.58.09a3.6,3.6,0,0,1-.44,1c-.08.17-.13.31.05.28a5.32,5.32,0,0,0,.58-.23c.18-.05.22,0,.36.15a.35.35,0,0,1-.27.57c-.39.06-.35.12-.55.14s-.76,0-.84-.21.23-.18.18-.34,0-.71-.05-.7-.37-.12-.27-.26.1-.08.12-.18a1.3,1.3,0,0,0-.08-.64c-.08-.12-.41-.22-.28-.44s.08-.06.12-.17.08-.48.13-.54-.05-.12-.15-.09a.17.17,0,0,1-.12-.28c.08-.09.31-.05.39-.23a2.49,2.49,0,0,0,0-.45c.05-.31,0-.3,0-.3s.22-.21.25-.06a2.88,2.88,0,0,1,0,.58c0,.17.08.36.17.21s.28-1.34.35-1.52,0-.48-.08-.34C26.52,38.09,26.07,38.41,25.8,38.76Z" transform="translate(-0.83 -34.74)"/><path class="cls-38" d="M24.77,39.32c-.08,0-.18-.14,0-.21s.52-.13.56.08.14.86.16,1,.06.37-.26.35-.28-.23-.3-.52S24.84,39.34,24.77,39.32Z" transform="translate(-0.83 -34.74)"/><path class="cls-38" d="M23.44,40a.63.63,0,0,0-.14.13c-.09.09-.13.17-.23.18s-.44-.13-.45-.21-.05-.17,0-.27a8.53,8.53,0,0,1,.88-.68c.14-.14.53-.49.57-.28s.27.21.26.39-.17.62-.17.76-.05,1-.05,1,.22,0,.19.18-.31.3-.13.41.23,0,.27-.14a1.79,1.79,0,0,1,.13-.35,7.51,7.51,0,0,1-.25,1.27c-.23.84-.44,1.17-.63,1.3s-.44,0-.36-.17a3.93,3.93,0,0,0,.09-.55c0-.12.17-.44.19-.5s0-.44-.14-.45-.42.22-.58.24,0-.46,0-.44.09-.06.15-.13a1.27,1.27,0,0,1,.38-.23s.23-.05.19-.4a7.86,7.86,0,0,0-.06-1C23.49,39.92,23.44,40,23.44,40Z" transform="translate(-0.83 -34.74)"/><path class="cls-38" d="M47,47.46a3,3,0,0,0-.06.46A4.47,4.47,0,0,0,47,49.06a4,4,0,0,0,.31.74c.08.1.18.37-.09.23s-.32-.31-.48-.41-.41-.19-.5-.29-.12-.18-.07-.71c0-.36.21-.57.21-.72s0-.39.18-.41A1.38,1.38,0,0,1,47,47.46Z" transform="translate(-0.83 -34.74)"/><path class="cls-38" d="M47.86,45.08a.6.6,0,0,0,0-.27c0-.09.14-.13.32-.18s.17,0,.31.17.36.39.14.67-.77.89-.72,1,0-.05.15,0,.41,0,.45.1-.21.61-.37.53-.47-.34-.7-.22-.28.22-.46.31a2.07,2.07,0,0,0-.43.15,4.05,4.05,0,0,1-1,.48L44.22,48c-.35,0-.75,0-1,0a12.23,12.23,0,0,1-1.33-.06c-.08,0,0-.17.28-.21s.68-.13,1.21-.18a5.15,5.15,0,0,0,1.16-.1c.7-.26,1.51-.32,1.68-.57s.05-.15-.21-.14a1,1,0,0,1-.9-.26c-.08-.1-.09-.18-.06-.24s.06-.17.14-.19a2.19,2.19,0,0,1,.28,0c.26,0,.88.08,1,.13a1,1,0,0,0,.63-.05C47.23,46.08,47.81,45.16,47.86,45.08Z" transform="translate(-0.83 -34.74)"/><path class="cls-40" d="M238.13,53.27a10.57,10.57,0,0,0-.9-2.5l3.17-.7a16.34,16.34,0,0,1,.78,2.82l-1.64.39h7.36v2.35h-12.6v4.85a14.85,14.85,0,0,1-2.5,8.27,13.23,13.23,0,0,0-2.66-1.17,10.61,10.61,0,0,0,2-3.69,17.41,17.41,0,0,0,.55-4.9V53.27Z" transform="translate(-0.83 -34.74)"/><path class="cls-40" d="M269.83,55.07q.66,2.25,1.17,4.38V50.53h1.53l.67,0c.29,0,.43.06.42.14a.6.6,0,0,1,0,.31,3.2,3.2,0,0,0-.16,1V68.51H271V61.17q-.58.14-1.77.34l-.26,0q-.4-2.65-1.09-5.56V67.57H265.6V61.09l-.9.14-1.06.18q-.17-1.23-.86-5v3.76a11.26,11.26,0,0,1-.63,4.15,11.3,11.3,0,0,1-2.9,3.89,13.16,13.16,0,0,0-2.43-1.25,7.46,7.46,0,0,0,2.66-2.56,7.57,7.57,0,0,0,1-3.91v-9.7H262l.63,0c.25,0,.39.06.4.14a.53.53,0,0,1,0,.29,2.89,2.89,0,0,0-.16,1v3.21q.7-.1,1.8-.31.43,1.43,1,4.23V51.55H267l.63,0c.27,0,.41.06.43.14s0,.11,0,.22a3.13,3.13,0,0,0-.17,1v2.43l.21,0Q269.43,55.1,269.83,55.07ZM259,61.64a12.28,12.28,0,0,0-2.11-.47q.25-1.14,1.1-6.1l.29,0a10.68,10.68,0,0,1,1.82.34q-.21,1.12-.61,3.48T259,61.64Z" transform="translate(-0.83 -34.74)"/><path class="cls-40" d="M292,53.82q-.39-1.53-.94-3.13a24.86,24.86,0,0,1,2.89-.39,1.16,1.16,0,0,0,0,.16q.4,1.68.59,3Q293.22,53.66,292,53.82Zm-3,.7h5.67a25,25,0,0,0,2.54-4.38,13.25,13.25,0,0,1,3,1.17c0,.06-.08.16-.23.3a8.08,8.08,0,0,0-.63.64q-.47.51-1.67,2l-.13.16h3.83v4.23h-2.66v-2H286.89v2h-2.5V54.52h3.8a13.53,13.53,0,0,0-2-2.58,25.29,25.29,0,0,1,2.58-1.25,27.12,27.12,0,0,1,2,2.82l-.78.46Zm2.9,6.81c0-.29.07-.45.33-.5a5.71,5.71,0,0,0,1.35-.75h-6.14V58h10.68a6.55,6.55,0,0,1-3.48,3.79V62h7v2.19h-7v2.56q.07,1.35-.69,1.63a9.41,9.41,0,0,1-3.53.4,9.47,9.47,0,0,0-.78-2.56l.34-.06q2-.24,2-.84V64.15h-7.67V62h7.67Z" transform="translate(-0.83 -34.74)"/><path class="cls-40" d="M317.65,52.41H322q-.22-.63-.52-1.37-.22-.51-.19-.59a18.39,18.39,0,0,1,2.58-.23,7.57,7.57,0,0,1,.63,2.19h4v3.91H327.2v1.56h-8.37V56.32h-1.17Zm-6.1-1.25h5.79q-.45,2.59-1.21,6.22a7.34,7.34,0,0,1,1.29,3.48V59.29h11.35v2.11h-3.44v4.15c0,.35.16.53.39.55h.78q.67.11.7-2a6.81,6.81,0,0,0,2.15.86,4.81,4.81,0,0,1-.63,2.54,1.94,1.94,0,0,1-1.76.65h-2.43q-1.57,0-1.56-1.25V61.41h-.7a6.71,6.71,0,0,1-1,4.27,9.92,9.92,0,0,1-4.19,2.84,6,6,0,0,0-1.64-2q4.76-1.12,4.62-5.14h-2.66q.16,2.94-3.05,3.21a6.43,6.43,0,0,0-.55-1.76v5.65h-2.27Zm3.44,2h-1.17v9.19q1.63,0,1.56-1.53a3.89,3.89,0,0,0-1.53-3A17.26,17.26,0,0,0,315,53.11Zm10.88,2.82V54.36H320v1.57Z" transform="translate(-0.83 -34.74)"/><path class="cls-41" d="M77.45,39.11h.09l0,0s0-.08,0-.12c.15-.25.39-.3.83-.26l.07,0c.2.21.91.54.75,1a.25.25,0,0,0,0,.05.92.92,0,0,1-.11.64v.05a1.46,1.46,0,0,0,.05.51c0,.2-.21.41-.26.62a3.82,3.82,0,0,0,0,1.08,1.1,1.1,0,0,0,.45,0,.21.21,0,0,0,.11,0l1.09-.74c.21-.1.46-.05.62-.21s.36-.56.62-.72.41-.1.56-.26A4.84,4.84,0,0,0,83,40l0,0,.33-.13.09-.05a13.42,13.42,0,0,1,1.25-1.35c.62-.41,1.18-.05,1.64.31.15.1.41.1.46.26.41.77-1.33,1.34-1.64,1.59s-.87.51-1.23.77c-.09.09-.14.18-.22.27l-.08.06a12.1,12.1,0,0,0-1.39.49c-.15.1-.31.26-.46.36a2.06,2.06,0,0,1-.57.1l-.09,0a9.33,9.33,0,0,1-2.78,1.31,5.49,5.49,0,0,1-.51,1.13c-.1.15-.05.67-.28,1a.39.39,0,0,0,0,.11v.54a.64.64,0,0,1,0,.12,4.54,4.54,0,0,0-.34,1.84.14.14,0,0,0,0,.07.6.6,0,0,0,.32.09A2.88,2.88,0,0,0,79.63,47c.26,0,.26-.05.46-.15.31.1.56.51,1.13.36A11.45,11.45,0,0,0,83.07,45c.26-.62.21-1,.67-1.39.21.05.41.05.62.1s.26.31.41.46a9.27,9.27,0,0,1,0,1.18c.05.05.15.05.2.1.15-.15,1.69-.92,2.31-.67a.91.91,0,0,1,.57.77c-.46.31-1.18.57-1.64.92-.15.1-.46-.05-.67.05-.41.21-1,.41-1.33.62-.26.05-.51.05-.77.1a9.06,9.06,0,0,0-1.23.56c-1,.76-1.33,2.28-2.23,3a.23.23,0,0,0,0,.09c0,.48-.3,1.39-.15,1.68a.71.71,0,0,0,.15.21c.82,0,1.44-.62,2-.87.36-.15.77-.1,1.13-.31a4.29,4.29,0,0,1,.67-.36c.21-.05.41-.05.62-.1.51-.36,1.13-.72,1.64-1.08.19-.14,1,0,1.4,0a.23.23,0,0,1,.11.06,1.16,1.16,0,0,0,.38.28.17.17,0,0,1,.05.09v.18a.21.21,0,0,1,0,.09l-.58.45-.11,0a4,4,0,0,0-.71.19,1.42,1.42,0,0,0-.42.26l-.1,0h-.3a9.68,9.68,0,0,1-1,.33h-.46l-.11,0c-.56.3-1.25.7-1.85,1-.92.36-2.31.41-2.82,1.13s-.36,2.52-.67,3.34a4.37,4.37,0,0,0,0,.67.34.34,0,0,0,.15.26c.51,0,2.06-.36,2.36-.1s.43.33.64.45c0,0,.14.08.12.29-.14,1-1.17,1.22-1.9,1.64a1.26,1.26,0,0,1-.32.09,1.89,1.89,0,0,0-.35,0,2.24,2.24,0,0,0-.81.52c-.21.46.26,1,.1,1.54a4.17,4.17,0,0,0,.15,2A13.69,13.69,0,0,1,79,66.94a1.55,1.55,0,0,1-.05.51,1.4,1.4,0,0,1,.1,1c-.25,1.06.44,2-.89,2a.13.13,0,0,1-.13-.07,5.76,5.76,0,0,1-.54-1,.13.13,0,0,0-.11-.08,1.14,1.14,0,0,0-.4.05s-.09,0-.11-.08a2.59,2.59,0,0,0-.18-.52c-.35-.45-.65-.46-.67-1.33a.07.07,0,0,1,0-.08c1.49-.76,1.31-3,1.15-4.76a.52.52,0,0,0-.15-.26l-.12,0c-.71-.33-1.73.87-2,1.46a.46.46,0,0,1-.23.15,8.12,8.12,0,0,1-1.31-.11.12.12,0,0,1-.11-.1,3.06,3.06,0,0,0-.52-.61.15.15,0,0,1-.06-.14c.07-1.84,2.63-2.25,3.8-3.11.41-.26.87-.21,1.08-.67v-.87c.15-.87.62-3.44-.26-3.49-.1.1-.31-.05-.51.1a5.78,5.78,0,0,0-.93.64l-.13,0h-.32c-.15,0-.2.26-.36.36s-.57.16-.77.31c0,0-.14.27-.2.31s-.41.05-.56.15c-.55.4-1.05.9-1.56,1.31l-.08,0h-.12l-.07,0a11.36,11.36,0,0,0-1.15.91c-.15.15-.1.46-.26.67A5.09,5.09,0,0,1,68.9,61c-.55.45-1.68.27-2.17.49a.12.12,0,0,0,0,.06,2.08,2.08,0,0,1,0,.25c0,.05,0,.07-.06.07a2.22,2.22,0,0,1-1.46-.42l-.07-.09a4.44,4.44,0,0,1-.46-1s0-.08,0-.08a1.81,1.81,0,0,0,.42-.26l.11,0h.26a.15.15,0,0,0,.11,0,2.36,2.36,0,0,1,.29-.4l.08,0h.2s.06-.06.06-.06l0-.11s0-.06.06-.06c.19-.06.38,0,.56-.08s.1-.26.15-.31c.26-.21.82-.1,1.13-.26.15-.1.31-.31.46-.41s.67-.1.87-.26c0,0,0-.16.08-.23a.27.27,0,0,1,.1-.06c.17,0,.51-.09.64-.13.36-.15.67-.51,1-.67s.41-.07.61-.13a.26.26,0,0,0,.08-.09.76.76,0,0,1,.18-.3c.1-.1.31-.05.46-.15.36-.21.77-.67,1.13-.82,1-.46,2-.67,2.88-1.18.26-.21,1-.21,1.13-.46.31-.15.15-.46.26-.82a11.74,11.74,0,0,0,.67-3.18.59.59,0,0,0-.23-.19h-.07c-1.7.31-1.46.93-2.32,2-.26-.05-.31-.21-.51-.31-.26.05-.56.05-.87.1a3.29,3.29,0,0,1-1.08,1c-.15.05-.57-.05-.77,0-.15-.31-.51-.36-.56-.82.41-.21.77-.67,1.13-.87h.31a5.72,5.72,0,0,0,1-.46,5.82,5.82,0,0,1,.72-.41c.41-.87.51-1.9.87-2.82.1-.36.77-2,.62-2.26a.41.41,0,0,0,0-.12l-.05,0c-.42,0-.62-.2-1-.21l0,0c-.09-.31-.14-.29,0-.66l.05,0a2.54,2.54,0,0,0,1.35-.33.2.2,0,0,0,0-.09c0-.35.24-.77,0-1s-.92-.62-.77-1.13A4.23,4.23,0,0,1,76.65,40c.2-.3.64-.5.76-.89Z" transform="translate(-0.83 -34.74)"/><path class="cls-41" d="M138.49,46.35a.14.14,0,0,1,.09-.14c.88-.42,2.2-2.51,3.14-2.07.46.26.93,1.44,1.39,1.59a1,1,0,0,0,.1.36c-.21.51-.77.87-1,1.28-.07.16,0,.23,0,.37a19.48,19.48,0,0,1-1.41,2c-.11.24,0,.47-.1.77s-.3.27-.41.46A9.71,9.71,0,0,1,139,53.38c-.31.31-.26.87-.46,1.23-.41.62-1.13.72-1.54,1.28a11.62,11.62,0,0,0-.05,2.67c.05.05.1.05.15.1,1,.21,1.39-.51,2,.46.1.15.26.21.15.46-.05.1-.26.1-.31.21-.21.31-.1.72-.31,1-.1.1-.46.15-.56.31s-.21.36-.31.51l-.31.15a5.48,5.48,0,0,0-.82,1.39c0,.21.21.36.26.51a3.9,3.9,0,0,0,.77.05c.31-.1,2.1-1,2.36-.51a2.48,2.48,0,0,1,.81,1.33.12.12,0,0,1-.05.13c-.5.47-1.3.36-2,.62a1,1,0,0,1-.25,0H138a.46.46,0,0,0-.24,0,4.15,4.15,0,0,1-1.69.52c-.15-.36-.87-.15-1.08-.51-.87-.72.62-2.31.82-2.82.1-.31.26-1,0-1.23-.1-.05-.31,0-.41-.15a3.6,3.6,0,0,1-.57-.71c0-.05-.06-.15.09-.23a3.83,3.83,0,0,1,.89-.7c.05-.51,0-1.39,0-2-.36-.1-.77-.77-1-1.08,0-1.34,1.59-1.69,1.54-3.13-.46-.15-.82-.41-1.28-.62.05-.51,1.28-.56,1.64-1,.36-.82-.21-2.16.51-2.46h.36c.15.21.26.16.26.57-.36.51-.21,1-.21,1.64.15.05.17.23.31.26h.28s.08,0,.12-.12A7.78,7.78,0,0,1,139.46,50a17.44,17.44,0,0,0,1.18-2.41c.26-.46.67-.62.67-1.33-.1-.05-.21-.26-.26-.36-.42,0-.84.05-1.26.09a.33.33,0,0,0-.15.07c-.25.64-.56.31-1.06.61a5.76,5.76,0,0,0-.81.76.2.2,0,0,1-.17.06.26.26,0,0,0-.16,0,12.66,12.66,0,0,0-1.79,1.24c-.24.19-.66.79-1,.82-.07,0-.08,0-.08,0-.07.28-.35.49-.3.88a12.9,12.9,0,0,1-.38,3.2s-.17,0-.2,0h-.2s-.09,0-.12,0c-.11-.22-.3-.23-.4-.38V51.12c-.2-.15.05-.77-.1-1.08s-.51-1-.1-1.23.73.26,1,.43a.22.22,0,0,0,.12,0h.4a.12.12,0,0,0,.13-.05c.15-.2.34-.21.53-.36s.36-.46.62-.67a1,1,0,0,0,.36-.1c.31-.21.56-.51.87-.72s.51-.1.72-.26.44-.63.9-.66C138.44,46.45,138.49,46.45,138.49,46.35Z" transform="translate(-0.83 -34.74)"/><path class="cls-41" d="M129.92,48a1,1,0,0,1,.56.15c.05.1.31.51.21.82a14.31,14.31,0,0,1-.92,1.75l-.15,1.39a11.22,11.22,0,0,0-.41,3.34c.51.21.46.62.82,1,.36,0,.36-.21.67-.26.05,0,.1.05.15.05a6,6,0,0,1-.62,2.1c-.05.05-.36.57-.26.62-.15.15-.36.31-.56.51a1.25,1.25,0,0,1-.05.41c-.05.16-.26.31-.36.46s-.05.62-.15.87c-.31.62-.62.72-.57,1.59-.21.15-.21.31-.36.51-.46.62-1.08.77-2.21.72a1.92,1.92,0,0,1-.46-.77c-.05-.41.31-.72.46-1s.05-.36.15-.56c.36-.62,1.49-2.31,1.49-3a3.55,3.55,0,0,0-1-.31,2,2,0,0,1-1.08.21c-.1-.26-.31-.26-.31-.62.62-1,2.16-1.18,2.72-2.16.36-.56-.15-1.59.15-2.41a7.53,7.53,0,0,0,.05-1.85c-.05-.31-.46-.26-.82-.21-.67.36-1.9.21-2.1-.51a14.38,14.38,0,0,1,2.46-1.39c.21-.16.41-.46.67-.57A6.51,6.51,0,0,0,129.92,48Z" transform="translate(-0.83 -34.74)"/><path class="cls-41" d="M159.39,52.77c-.05-.41-.87-2.16-.46-2.36.05-.05.16-.15.21-.15.26-.21.67.15.82.15a9,9,0,0,0,2-.15c.46-.1.87-.26,1.49-.36.77-.1,1.75,0,2.46-.15.31-.1.51.1.72.05a3.17,3.17,0,0,0,.67-.05c.41.21,1.18.82,1.23,1.28-.26.26-.16.93-.36,1.13a5.18,5.18,0,0,1-.82.67,8.55,8.55,0,0,1-.46.72,23,23,0,0,0-1.9,2c-.2.2-.56.31-.77.56-.05.1,0,.26-.1.41a4.78,4.78,0,0,1-.51.26c-.05.15-.1.26-.15.41s-.26,0-.36.1c-.31.21-.36,1-.31,1.28a1.77,1.77,0,0,0,1.08.1c.26-.1,1.28-.82,1.64-.21.56.21.46.93.26,1.34a11.12,11.12,0,0,0-1.85.62h-.77c-.72.21-1.64.21-2.36.46a11.73,11.73,0,0,0-1,.72c-.26.1-.51.05-.77.2s-.77.56-1.18.77c-.21.1-.41,0-.57.1A1.59,1.59,0,0,0,157,63c-.15.1-.36.15-.51.26s-.21.31-.31.46a8.31,8.31,0,0,1-.84.4c-.16.08-.25.08-.27.07a2.89,2.89,0,0,0-1.19-.1.19.19,0,0,1-.21-.13c-.22-.56-.66-.2-1.09-.35a8.84,8.84,0,0,1-.87-.9.57.57,0,0,1-.06-.23V62.1a.36.36,0,0,1,.1-.18,2.52,2.52,0,0,1,1.08-.42c.05,0,.41.15.56.1.87-.46,2-.62,2.88-1,.36-.15,1-.51,1.18-.62a3.41,3.41,0,0,1,.72-.1,6,6,0,0,0,1.49-.87,13.91,13.91,0,0,0,.92-1.74,20.27,20.27,0,0,1,2.05-2.16c.05-.15.1-.31.15-.51.46-.51,2.26-2,2.26-2.72-.31-.1-.51-.31-.92-.26-.1.1-.92.05-1.34.15-.56.21-2.41,1.49-3,1.23a.4.4,0,0,1-.15-.1A1.12,1.12,0,0,1,159.39,52.77Z" transform="translate(-0.83 -34.74)"/><path class="cls-41" d="M188.06,45.74a2.5,2.5,0,0,1,1,.41c.15.1.21.46.36.57.41.26.82.26,1.08.67a3.56,3.56,0,0,1-.26,1.59,2.67,2.67,0,0,0,.05,1.44c0,.1,0,.38-.05.59a.07.07,0,0,0,0,0,1.9,1.9,0,0,0,1,.2h0l0,0c.15.14.34.15.39.5.15.15-.1.92-.21,1a7,7,0,0,1-1.85,1.18,3.2,3.2,0,0,0-.72.92,4.79,4.79,0,0,1-.21.67c0,.1-.31.15-.36.26a2.92,2.92,0,0,0-.1.66.43.43,0,0,1,0,.1c-.1.17-.63.93-.91,1.3s-.21,1.14-.46,1.49c0,0-.75.77-.87.87s-.27,0-.41.1c-.46.31-.62,1-1.08,1.39-.06,0-.36.1-.56.21s0,.1-.1.15-.18,0-.28,0h0c-.08.08-.31.51-.49.6s-.36.05-.56.21c-.66.46-1.62,1.52-2.49,1.54l0,0c-.16.53-.61.34-1,.64a8.6,8.6,0,0,1-.67.72c-.15.1-.41.1-.51.2a7.6,7.6,0,0,1-1,1.06l-.05,0a4.52,4.52,0,0,1-.59,0l-.08,0a1.8,1.8,0,0,1-.15-.19.25.25,0,0,1,0-.07V66.7l0,0c.4-.31.76-.76,1.16-1.06a7.57,7.57,0,0,1,1.08-.67c.1-.1.15-.36.26-.41a3.8,3.8,0,0,0,.41-.1,6.73,6.73,0,0,1,.66-.55c.09,0,.23,0,.31,0s.32-.51.41-.51a.69.69,0,0,0,.36-.1c.21-.1.31-.46.51-.56a2.3,2.3,0,0,0,.67-.51c.1-.1.1-.31.26-.36,1.33-.82,3.34-2.36,3.54-4.26l-.05-.05a2.17,2.17,0,0,0-.92.26,2.52,2.52,0,0,1-2.52-.36c-.31-.26-.56-.15-.62-.72-.41-.62,1.28-1.23,1.69-1.44.31-.05.62-.16,1-.21s.51-.41.82-.57.92-.26,1.34-.51c.21-.15.26-.51.46-.67s.56-.15.67-.41V51.48a17.43,17.43,0,0,0,.26-2.41s-.23-2.07-.25-2.37a.11.11,0,0,1,0-.06,6,6,0,0,0,.33-.78l0,0c.17,0,.18,0,.26-.09Z" transform="translate(-0.83 -34.74)"/><path class="cls-41" d="M188.91,57.85c.22,0,.36,0,.46.16s.21.31.36.46.55.43.79.65a.83.83,0,0,1,.2.3c.1.25.21.49.29.69a4.46,4.46,0,0,0,.51.41c.05.05,0,.15.05.2.72.51,1.59.93,2.31,1.44.16.15.36,0,.57.1a5.28,5.28,0,0,1,1,.69.23.23,0,0,1,0,.08c0,.34,0,.62-.21.72-.36.31-1.54-.15-1.8-.15s-.31.21-.46.26a2.67,2.67,0,0,1-1.4.11.11.11,0,0,1-.06,0c-.21-.53-.56-.69-.86-1a12.59,12.59,0,0,1-.51-1.49c-.35-1-1.56-2.28-1.29-3.5A.11.11,0,0,1,188.91,57.85Z" transform="translate(-0.83 -34.74)"/><path class="cls-41" d="M97,52.66c.05.1-.46-.57-.72-.67s-.21-.26-.36-.51-.62-.15-.62-.87c.21-.1.26-.26.46-.36.72-.21,1.44.1,2-.21h.31a3.42,3.42,0,0,1,1-.46h.46c1.08-.67,2.41-1,3.34-1.69h.41a10.21,10.21,0,0,0,1.64-1.08c.21-.31.15-.82.31-1.23a5.18,5.18,0,0,0,.43-3,.38.38,0,0,1,.05-.16,1.64,1.64,0,0,1,.21-.3s.09,0,.14.05c.23.27.95.63,1.25.9a.27.27,0,0,1,.1.21,3.52,3.52,0,0,0,.18.59,5.85,5.85,0,0,0,.77,1.18,11.78,11.78,0,0,0,1.54-.31.65.65,0,0,0,.19.25.62.62,0,0,1,.12.24v.17a.32.32,0,0,1-.07.15c-.64.43-.56,1.3-1.11,1.7a6.94,6.94,0,0,1-1.33.77c-.26.15-.57.1-.82.31s-.82,1.28-1,1.59a1.51,1.51,0,0,0-.1.46c-.72.92-2.46,2.16-2.46,3.59l.15.15a2.72,2.72,0,0,0,1.8-.67c.1-.1.15-.31.21-.31.21-.1.41,0,.56-.1,1.33-.87,2.57-1.8,4-2.57a18.61,18.61,0,0,0,1.54-1.39,1.26,1.26,0,0,0,.21-.36,5.36,5.36,0,0,1,3.13-.77c.2.31.46.46.41,1-.65.6-.62,1.82-.94,2.55a.43.43,0,0,0,0,.19v.44a.71.71,0,0,1,0,.24c-1,2.91-1.06,6.62-1.67,9.83,0,.2.05.41.05.56-.15.87-.1,1.59-.26,2.21s.1,1.59-.26,2.11a1,1,0,0,1-.76.36.09.09,0,0,1-.1-.05,4.77,4.77,0,0,0-1.66-1.59c-.26-.15-.36-.51-.62-.72s-1-.41-1.13-.67-.1-.41-.26-.56a1.89,1.89,0,0,0-.33-.33.1.1,0,0,1,0-.09v-.15a.1.1,0,0,1,0-.09l.13-.13a.07.07,0,0,1,.07,0h.3a.11.11,0,0,1,.11,0c.31.42.75.48,1.2.78.25.15.44.48.73.65a.14.14,0,0,0,.08,0h.55a.11.11,0,0,0,.11,0c1-1.3.69-4.19,1-6a7.58,7.58,0,0,1-.05-1.08.93.93,0,0,0,.1-.56v-.62a7.2,7.2,0,0,1,.56-1.08v-.41c.2-.62.26-1.44.51-2.11.1-.26.36-.57.46-.82.05-.41.15-.87.21-1.34a5.87,5.87,0,0,0,.31-1.17s0-.1-.15-.11-.87,0-1.08.1c-.78.34-1.43,1.39-2.11,1.71-.13,0-.1.12-.1.16,0,.62.47.84.47,1.52-.41.21-.62.82-1,1.08-.57.36-1.33,0-2,.26-.1.05-.15.2-.26.26a5.54,5.54,0,0,0-1,.36,1.32,1.32,0,0,1,0,.18.09.09,0,0,1-.11.08l-.33,0a.23.23,0,0,0-.16.05,10.69,10.69,0,0,0-1.54,1.3.09.09,0,0,1-.08,0,2.14,2.14,0,0,0-1.29-.59l-.06,0a5.13,5.13,0,0,1-1.68,1.57c-.21.05-.31-.1-.36-.1-.82-.21-.82.26-1.39-.41-.1-.15-.15,0-.2-.26,0,0,0,0,0-.06s.28-.25.47-.34c.41-.21.93-.31,1.34-.51s.77-.05,1-.26c.46-.41-.1-1.13.1-1.8.21-.82,1.08-2,1.08-2.72a5.25,5.25,0,0,1-.51-.26c-.31-.16-.51.15-.67.26a2.6,2.6,0,0,0-.67.1c-.1.05-.15.26-.21.31s-.36,0-.51.1c-1.08.72-1.28.87-1.28.87a2.51,2.51,0,0,1-.36.15c-.05,0-.1.05-.21.1s-.31.31-.31.25-.26.21-.2.1c-.05.05-.36.1-.41.15s-.57,0-.57,0A.75.75,0,0,1,97,52.66Z" transform="translate(-0.83 -34.74)"/><path class="cls-41" d="M106.5,56.93a1.23,1.23,0,0,1,1,.88s0,.05,0,.07a4.72,4.72,0,0,1-.49.59,6.88,6.88,0,0,1-2,.26,1.55,1.55,0,0,1-.23-.3l-.08-.08c-.53-.26-1-.06-1.12-.89a.14.14,0,0,1,0-.09,4.13,4.13,0,0,1,1.56-.18.05.05,0,0,0,.05,0c.22-.3.9,0,1.18-.2A.12.12,0,0,1,106.5,56.93Z" transform="translate(-0.83 -34.74)"/><path class="cls-41" d="M98.13,57.54c.36.1.26.21.41.46a3,3,0,0,1,.62,1.49V60c.56,1.33.51,4.26-.57,5.08h-.51c-.26-.36-.62-.56-.92-1-.36-.56.51-3.29.72-3.8.31-.77-.41-2.36.1-2.62C98,57.54,98,57.59,98.13,57.54Z" transform="translate(-0.83 -34.74)"/><path class="cls-41" d="M107.37,59.23a2.31,2.31,0,0,1,.67.1c0,1.08-1.44,1.64-1.85,2.36,0,.16,0,.24,0,.46-.05.05-.21.15-.21.21,0,.21.05.41.05.62a1.11,1.11,0,0,1-.15.26c-.36,1,.67,2-.15,2.46-.31.1-.46,0-.77-.05-1.49-.26-1.08-1.49-1-2.87-.15-.05-.15-.1-.36-.1a2.15,2.15,0,0,0-.51.21c-.21-.21-.56-.46-.62-.82.21-.05.31-.21.46-.26h.62a3,3,0,0,0,.62-.51c.2-.41-.1-1.08.31-1.28.05-.16.21-.21.46-.21a1.81,1.81,0,0,0,1.28.62C106.44,60,107.11,59.75,107.37,59.23Z" transform="translate(-0.83 -34.74)"/><path class="cls-41" d="M215.37,50.76h-.16c-.1.15-.26.15-.31.26a2.85,2.85,0,0,0,.05,1.75c.05.15,0,.1.15.1a.23.23,0,0,0,.26,0h.31c.15-.46.51-1.59-.05-2A1.11,1.11,0,0,0,215.37,50.76Zm-2.47-.92h-.31c-.21.46-.67.82-.67,1.44.05.05.05.1.1.15a1.64,1.64,0,0,0,.87-.1,2.51,2.51,0,0,0,1-.87.31.31,0,0,1-.05-.2A4.28,4.28,0,0,0,212.9,49.84Zm-2.46.1c-.31.1-.72-.05-1,.46s.72,2.82.82,2.88a.19.19,0,0,0,.15.05,1.07,1.07,0,0,0,.56-.46c-.1-.36-.21-.51-.51-.57a2.17,2.17,0,0,1,1-2,.66.66,0,0,1-.05-.31,3.38,3.38,0,0,0-.82-.15C210.54,49.89,210.49,49.94,210.44,49.94Zm0,16c-.31.21-.62.05-.87.31-.82.72-3.44,2-5,1.44-.05-.21-.21-.36-.21-.62a6.28,6.28,0,0,0,.41-.62,3.67,3.67,0,0,0,1.69-.77c.26-.15.56-.05.77-.2a5.09,5.09,0,0,1,.82-.67c.62-.36,1.39-.46,2-.82a1.78,1.78,0,0,0,.41-.46c.51-.36,1.74-.62,1.95-1,.1-.21,0-.46.16-.77a.71.71,0,0,1,.36-.41,1.06,1.06,0,0,0,.46-.31c.26-.36.46-.72.77-1.08a12.65,12.65,0,0,1,1.23-1,3.8,3.8,0,0,0,.62-.73,1.41,1.41,0,0,0,0-.18v-.19s-.07-.15-.11-.16a3.75,3.75,0,0,0-.56,0,1.61,1.61,0,0,0-.26.08l-.35.3a1.52,1.52,0,0,1-.26.08h-.25l-.19,0c-.34.15-.71.39-1,.53s-.51.05-.72.21a7.37,7.37,0,0,1-.72.81.49.49,0,0,1-.35.06h-.52a.52.52,0,0,0-.28,0c-.6.19-1.32.32-1.32-.4.46-.2.92-.41,1.33-.62a11,11,0,0,0,1.85-1.08c.2-.1.46-.05.62-.16a.19.19,0,0,0,.15-.05c.36-.21.72-.56,1.13-.77a1.48,1.48,0,0,0,.46-.1,3.46,3.46,0,0,0,.72-.46c.05,0,.1-.05.15-.1.21-.1.51-.05.67-.21s.31-1,.41-1.33c.31-.36.26-.82.51-1.13s.41-.31.56-.51a2.59,2.59,0,0,0,.31-.67c.1-.15.26-.15.41-.26s.15-.46.26-.67c.46-.72,1.33-1.39,1.28-2.46-.05-.05-.05-.1-.15-.15-.92-.21-1.23.46-2.21.46-.15.36-.62.46-.72.72-.15.51,1,.87.72,1.54-.05.15-.26.31-.36.46s-.21.67-.31.87-.36.36-.46.51,0,.46-.2.57c-.21.26-.51.36-.72.62a2.18,2.18,0,0,1-.1.57,10.87,10.87,0,0,1-.77.77c-.2-.1-.26-.15-.26-.36a1.64,1.64,0,0,0,.26-1c-.56-.05-.87-.36-1.44-.21a.9.9,0,0,1-.31.57,1.81,1.81,0,0,1-1,.51c-.05-.21-.15-.21-.15-.46a2.22,2.22,0,0,0,.46-1.08,1.37,1.37,0,0,0-.72-.15c-.1.51-.56.77-.87,1.08-.05.1-.16.21-.21.31-.41.72-.72,1.9-1.9,1.74a3.84,3.84,0,0,0-.36-.62c-.1-.05-.15-.1-.26-.16-.31-.41-.36-1.13-.67-1.54a8.6,8.6,0,0,0-.72-.67c-.05-.56,0-1,.72-1a1.18,1.18,0,0,0,1.13.46c.05-.05.1-.05.15-.15.46-.62.05-1.75-.46-2.36,0-.21-.05-.46-.05-.67a1.48,1.48,0,0,0-.41-.21,3.74,3.74,0,0,1-.67-1.18.4.4,0,0,1,.1-.21c.21-.1.26-.21.51-.21.67.21.77.92,1.44,1.18.36.1,1-.26,1.44-.51a1.11,1.11,0,0,0,.26-.15c.26-.05.51-.05.77-.1s.21-.26.36-.31a7.47,7.47,0,0,0,1.08-.46.27.27,0,0,0,.21-.1c.26-.21.31-.67.51-1a30.56,30.56,0,0,1,1.75-2.72,1.32,1.32,0,0,0,0-.77,7.32,7.32,0,0,0-.41-.87s-.09-.86-.11-1.19a.15.15,0,0,1,.08-.17.65.65,0,0,0,.25-.25c0-.09.19-.08.19-.08a3.41,3.41,0,0,1,3.2,1.69s.11.08,0,.29c-.28,1.25-1.44,1.75-2.17,2.59-.36.36-.56.82-.92,1.13l-.15.15c-.46.36-1.08.72-1.08,1.39.1.05.1.15.15.21l.92.15c.15.1.26.26.46.31,1.13.26,2.62-1.44,3.34-1.74a2.83,2.83,0,0,1,.72-.21c.56-.21,1.08-1,1.9-.26.51.41,1.49,1.69.82,2.62-.21.31-.62.36-.92.57s-.31.62-.56.77-.41.05-.56.26v.15c-.21.26-.62.41-.82.67v.26c-.26.36-.72.51-1.08.82-.15.15-.05.36-.15.56s-.36.21-.46.36a7.79,7.79,0,0,0-.41,1c1,.57,2,.92,2,2.41-.26.21-.36.51-.62.72-.1.05-.26.05-.36.1a2.24,2.24,0,0,1-.31.36c-.26.15-.46.15-.72.31-.1.1-.21.26-.31.36a5.74,5.74,0,0,0-.82.51c-.2.15-.31.46-.51.56a.47.47,0,0,1-.26.05,3.57,3.57,0,0,0-.31.46c-.26.21-.31.05-.41.21s0,.06-.1.15c-.36.51-1.23.41-1.18,1.28h.15c.16.15,1-.21,1.54-.41a.78.78,0,0,1,.31-.15c.21-.05.41-.05.67-.1,1.44-.56,2.21.51,2.46,1.59-.1.05-.21.21-.31.26H218a7,7,0,0,0-.67.41c-.26.1-.56,0-.72.1.05.21-.67.67-.92.67l-.31-.31c-.05-.05,0-.15,0-.21s.05-.15,0-.21l-1-.05c-.05.1-.1.05-.1.2-.15.51.36,1.23.46,1.69s.05.72.21,1.13c0,.05.15.16.21.21.1.26,0,.41.1.67a.26.26,0,0,0,.1.21c.05.05.1.15.15.21a9.12,9.12,0,0,1-.15,2.88c-.21.82.1,1.59-.46,2a2,2,0,0,1-2-.05c-.15-.1-.26-.36-.46-.46-.51-.26-1.08-.26-1.49-.56-.1-.1-.36-.26-.51-.41s-.15-.26,0-.36a9,9,0,0,1,1.85-.36h.39a.61.61,0,0,0,.4-.16,3.21,3.21,0,0,1,.41-.37s0-.1,0-.14a7.86,7.86,0,0,1,.25-1.33c.15-.51-.15-.77-.26-1v-1c-.15-.46-.26-1.13-.41-1.54h-.21A3.32,3.32,0,0,0,210.44,66Z" transform="translate(-0.83 -34.74)"/><path class="cls-40" d="M70.05,80.82a1.43,1.43,0,0,0-.83-1,2,2,0,0,0-.82-.16,1.77,1.77,0,0,0-1.42.67,3.08,3.08,0,0,0-.55,2A2.53,2.53,0,0,0,67,84.2a2,2,0,0,0,1.37.56,1.75,1.75,0,0,0,1.23-.44,1.94,1.94,0,0,0,.59-1.17H68.57V81.93h3v3.92h-1l-.15-.91a3.43,3.43,0,0,1-.78.73,2.68,2.68,0,0,1-1.46.37,3,3,0,0,1-2.33-1,3.89,3.89,0,0,1-.95-2.77,4.12,4.12,0,0,1,1-2.85,3.61,3.61,0,0,1,4.72-.36,2.63,2.63,0,0,1,1,1.76Z" transform="translate(-0.83 -34.74)"/><path class="cls-40" d="M74,80.44V83.7a1.73,1.73,0,0,0,.11.69.74.74,0,0,0,.74.41,1,1,0,0,0,1-.58,2.14,2.14,0,0,0,.14-.84V80.44h1.4v5.41H76.06v-.76l-.1.15a1,1,0,0,1-.18.22,1.92,1.92,0,0,1-.63.41,2.07,2.07,0,0,1-.71.11,1.58,1.58,0,0,1-1.58-.86,3.37,3.37,0,0,1-.23-1.4V80.44Z" transform="translate(-0.83 -34.74)"/><path class="cls-40" d="M81.47,83.22a1.52,1.52,0,0,1-.27.14,2.37,2.37,0,0,1-.36.09l-.31.06a2,2,0,0,0-.63.19.76.76,0,0,0-.13,1.13.75.75,0,0,0,.48.16,1.37,1.37,0,0,0,.82-.27,1.15,1.15,0,0,0,.39-1Zm-.84-.66a2.11,2.11,0,0,0,.55-.12.42.42,0,0,0,.29-.4.47.47,0,0,0-.23-.46,1.35,1.35,0,0,0-.66-.13.85.85,0,0,0-.69.25,1,1,0,0,0-.19.49H78.36A2.1,2.1,0,0,1,78.75,81a2.23,2.23,0,0,1,1.88-.71,3.3,3.3,0,0,1,1.54.35A1.36,1.36,0,0,1,82.85,82v2.48c0,.17,0,.38,0,.63a.82.82,0,0,0,.08.38.5.5,0,0,0,.2.16v.21H81.64a1.66,1.66,0,0,1-.09-.31c0-.1,0-.21,0-.33a2.88,2.88,0,0,1-.66.54,2,2,0,0,1-1,.26,1.73,1.73,0,0,1-1.19-.42,1.52,1.52,0,0,1-.47-1.19A1.55,1.55,0,0,1,78.94,83a3.3,3.3,0,0,1,1.21-.35Z" transform="translate(-0.83 -34.74)"/><path class="cls-40" d="M88.16,80.75a1.8,1.8,0,0,1,.52,1.45v3.64H87.26V82.56a1.54,1.54,0,0,0-.11-.65.78.78,0,0,0-.78-.42,1,1,0,0,0-1,.61,2.14,2.14,0,0,0-.14.82v2.93H83.89v-5.4h1.33v.79a2.38,2.38,0,0,1,.51-.6,1.73,1.73,0,0,1,1.08-.33A2,2,0,0,1,88.16,80.75Z" transform="translate(-0.83 -34.74)"/><path class="cls-40" d="M92.86,84.32a1.77,1.77,0,0,0,.34-1.2A1.85,1.85,0,0,0,92.87,82a1,1,0,0,0-.85-.4,1,1,0,0,0-1,.7,2.53,2.53,0,0,0-.15.92A2.13,2.13,0,0,0,91,84a1,1,0,0,0,1,.68A1.06,1.06,0,0,0,92.86,84.32Zm-.47-3.88a1.68,1.68,0,0,1,.82.78v-.78h1.34v5.13a2.92,2.92,0,0,1-.34,1.58,2.51,2.51,0,0,1-2.27.91,3.05,3.05,0,0,1-1.66-.41,1.51,1.51,0,0,1-.71-1.22h1.51a.65.65,0,0,0,.19.36A1.16,1.16,0,0,0,92,87a1,1,0,0,0,1-.51,2.65,2.65,0,0,0,.17-1.1V85a1.54,1.54,0,0,1-1.5.84A2,2,0,0,1,90,85.15a3,3,0,0,1-.61-2,3.38,3.38,0,0,1,.59-2,1.92,1.92,0,0,1,1.66-.82A1.78,1.78,0,0,1,92.38,80.44Z" transform="translate(-0.83 -34.74)"/><polygon class="cls-40" points="94.51 46.86 94.51 45.71 98.8 45.71 98.8 46.88 96.12 49.95 98.89 49.95 98.89 51.12 94.33 51.12 94.33 50.01 97.04 46.86 94.51 46.86"/><path class="cls-40" d="M104.23,80.48a1.56,1.56,0,0,1,.66.53,1.43,1.43,0,0,1,.27.62,7.73,7.73,0,0,1,0,1v3.18h-1.41V82.56a1.47,1.47,0,0,0-.15-.7.72.72,0,0,0-.72-.38,1,1,0,0,0-.83.38,1.74,1.74,0,0,0-.28,1.07v2.93h-1.38V78.56h1.38v2.58a1.7,1.7,0,0,1,.69-.66,1.94,1.94,0,0,1,.84-.19A2.2,2.2,0,0,1,104.23,80.48Z" transform="translate(-0.83 -34.74)"/><path class="cls-40" d="M109.61,84.41a2.09,2.09,0,0,0,.32-1.26,2.06,2.06,0,0,0-.32-1.25,1.09,1.09,0,0,0-.93-.44,1.1,1.1,0,0,0-.94.44,2.06,2.06,0,0,0-.32,1.25,2.09,2.09,0,0,0,.32,1.26,1.1,1.1,0,0,0,.94.44A1.09,1.09,0,0,0,109.61,84.41Zm1.11.78a2.88,2.88,0,0,1-4.07,0,3.42,3.42,0,0,1,0-4.07,2.84,2.84,0,0,1,4.07,0,3.42,3.42,0,0,1,0,4.07Z" transform="translate(-0.83 -34.74)"/><path class="cls-40" d="M113.56,80.44V83.7a1.75,1.75,0,0,0,.11.69.74.74,0,0,0,.74.41,1,1,0,0,0,1-.58,2.21,2.21,0,0,0,.14-.84V80.44h1.4v5.41h-1.34v-.76l-.1.15a1,1,0,0,1-.18.22,1.92,1.92,0,0,1-.63.41A2.07,2.07,0,0,1,114,86a1.58,1.58,0,0,1-1.58-.86,3.34,3.34,0,0,1-.23-1.4V80.44Z" transform="translate(-0.83 -34.74)"/><path class="cls-40" d="M121.43,79.3a3.35,3.35,0,0,1,4.87.31,2.66,2.66,0,0,1,.49,1.36H125.3a2.1,2.1,0,0,0-.37-.79,1.51,1.51,0,0,0-1.21-.48,1.49,1.49,0,0,0-1.29.68,3.28,3.28,0,0,0-.47,1.9,2.9,2.9,0,0,0,.5,1.85,1.57,1.57,0,0,0,1.27.61,1.43,1.43,0,0,0,1.2-.53,2.32,2.32,0,0,0,.38-.85h1.48a3.3,3.3,0,0,1-1,1.94,2.86,2.86,0,0,1-2,.75,3.05,3.05,0,0,1-2.43-1,4.11,4.11,0,0,1-.88-2.79A4.07,4.07,0,0,1,121.43,79.3Z" transform="translate(-0.83 -34.74)"/><path class="cls-40" d="M130.92,84.41a2.08,2.08,0,0,0,.33-1.26,2.06,2.06,0,0,0-.33-1.25,1.21,1.21,0,0,0-1.87,0,2.06,2.06,0,0,0-.33,1.25,2.08,2.08,0,0,0,.33,1.26,1.1,1.1,0,0,0,.94.44A1.09,1.09,0,0,0,130.92,84.41Zm1.11.78a2.88,2.88,0,0,1-4.07,0,3.42,3.42,0,0,1,0-4.07,2.84,2.84,0,0,1,4.07,0,3.43,3.43,0,0,1,0,4.07Z" transform="translate(-0.83 -34.74)"/><rect class="cls-41" x="132.69" y="43.8" width="1.38" height="7.31"/><rect class="cls-41" x="135.26" y="43.8" width="1.38" height="7.31"/><path class="cls-40" d="M140,81.77a1.57,1.57,0,0,0-.33.83h2.15a1.23,1.23,0,0,0-.33-.85,1,1,0,0,0-.74-.29A.94.94,0,0,0,140,81.77Zm1.94-1.22a2.1,2.1,0,0,1,.87.8,2.77,2.77,0,0,1,.4,1.12,7.44,7.44,0,0,1,0,1.07H139.6a1.35,1.35,0,0,0,.5,1.14,1.15,1.15,0,0,0,.69.2,1,1,0,0,0,.69-.25,1.18,1.18,0,0,0,.26-.37h1.41a1.82,1.82,0,0,1-.49,1,2.38,2.38,0,0,1-1.9.79,2.65,2.65,0,0,1-1.78-.67,2.71,2.71,0,0,1-.77-2.16A3.05,3.05,0,0,1,138.9,81a2.36,2.36,0,0,1,1.81-.75A2.73,2.73,0,0,1,141.91,80.55Z" transform="translate(-0.83 -34.74)"/><path class="cls-40" d="M147.06,84.32a1.77,1.77,0,0,0,.34-1.2,1.84,1.84,0,0,0-.32-1.17,1,1,0,0,0-.85-.4,1,1,0,0,0-1,.7,2.51,2.51,0,0,0-.15.92,2.14,2.14,0,0,0,.16.84,1,1,0,0,0,1,.68A1.06,1.06,0,0,0,147.06,84.32Zm-.47-3.88a1.68,1.68,0,0,1,.82.78v-.78h1.34v5.13a2.92,2.92,0,0,1-.35,1.58,2.51,2.51,0,0,1-2.27.91,3,3,0,0,1-1.66-.41,1.51,1.51,0,0,1-.71-1.22h1.51a.65.65,0,0,0,.19.36,1.16,1.16,0,0,0,.75.19,1,1,0,0,0,1-.51,2.65,2.65,0,0,0,.17-1.1V85a1.72,1.72,0,0,1-.43.52,1.7,1.7,0,0,1-1.07.32,2,2,0,0,1-1.63-.73,3,3,0,0,1-.61-2,3.38,3.38,0,0,1,.59-2,1.93,1.93,0,0,1,1.67-.82A1.79,1.79,0,0,1,146.59,80.44Z" transform="translate(-0.83 -34.74)"/><path class="cls-40" d="M151.18,81.77a1.56,1.56,0,0,0-.33.83H153a1.24,1.24,0,0,0-.33-.85,1,1,0,0,0-.74-.29A.94.94,0,0,0,151.18,81.77Zm1.94-1.22a2.1,2.1,0,0,1,.87.8,2.77,2.77,0,0,1,.4,1.12,7.35,7.35,0,0,1,0,1.07h-3.62a1.35,1.35,0,0,0,.5,1.14,1.15,1.15,0,0,0,.69.2,1,1,0,0,0,.69-.25,1.15,1.15,0,0,0,.26-.37h1.41a1.82,1.82,0,0,1-.49,1A2.38,2.38,0,0,1,152,86a2.65,2.65,0,0,1-1.78-.67,2.71,2.71,0,0,1-.77-2.16,3.06,3.06,0,0,1,.69-2.15,2.37,2.37,0,0,1,1.81-.75A2.73,2.73,0,0,1,153.12,80.55Z" transform="translate(-0.83 -34.74)"/><path class="cls-40" d="M158.94,83.59a1.25,1.25,0,0,0,1.51,1.2,2.56,2.56,0,0,0,.86-.12.85.85,0,0,0,.63-.85.63.63,0,0,0-.31-.56,3.3,3.3,0,0,0-1-.34l-.76-.17a4.69,4.69,0,0,1-1.54-.56,1.8,1.8,0,0,1-.72-1.58,2.14,2.14,0,0,1,.7-1.63,2.92,2.92,0,0,1,2.05-.65,3.06,3.06,0,0,1,1.93.62,2.2,2.2,0,0,1,.84,1.78h-1.44a1.05,1.05,0,0,0-.56-.94,1.86,1.86,0,0,0-.87-.18,1.6,1.6,0,0,0-.92.24.76.76,0,0,0-.34.67.63.63,0,0,0,.34.58,4.08,4.08,0,0,0,.93.3l1.23.3a3.19,3.19,0,0,1,1.22.53,1.81,1.81,0,0,1,.64,1.49,2.13,2.13,0,0,1-.75,1.67,3.09,3.09,0,0,1-2.12.66,3.4,3.4,0,0,1-2.2-.65,2.2,2.2,0,0,1-.8-1.8Z" transform="translate(-0.83 -34.74)"/><path class="cls-40" d="M167.49,84.41a2.09,2.09,0,0,0,.33-1.26,2.06,2.06,0,0,0-.33-1.25,1.09,1.09,0,0,0-.93-.44,1.1,1.1,0,0,0-.94.44,2.07,2.07,0,0,0-.33,1.25,2.09,2.09,0,0,0,.33,1.26,1.1,1.1,0,0,0,.94.44A1.09,1.09,0,0,0,167.49,84.41Zm1.11.78a2.88,2.88,0,0,1-4.07,0,3.42,3.42,0,0,1,0-4.07,2.84,2.84,0,0,1,4.07,0,3.42,3.42,0,0,1,0,4.07Z" transform="translate(-0.83 -34.74)"/><path class="cls-40" d="M171.44,80.44V83.7a1.73,1.73,0,0,0,.11.69.74.74,0,0,0,.74.41,1,1,0,0,0,1-.58,2.15,2.15,0,0,0,.14-.84V80.44h1.4v5.41h-1.34v-.76l-.1.15a1,1,0,0,1-.19.22,1.91,1.91,0,0,1-.63.41,2.06,2.06,0,0,1-.71.11,1.58,1.58,0,0,1-1.58-.86,3.39,3.39,0,0,1-.23-1.4V80.44Z" transform="translate(-0.83 -34.74)"/><path class="cls-40" d="M175.4,81.5v-1h.74V79h1.37v1.51h.86v1h-.86v2.86a.67.67,0,0,0,.08.42.91.91,0,0,0,.5.08h.27V85.9l-.66,0a1.73,1.73,0,0,1-1.34-.35,1,1,0,0,1-.23-.75V81.5Z" transform="translate(-0.83 -34.74)"/><path class="cls-40" d="M182.87,80.48a1.55,1.55,0,0,1,.66.53,1.42,1.42,0,0,1,.27.62,7.75,7.75,0,0,1,0,1v3.18h-1.41V82.56a1.47,1.47,0,0,0-.15-.7.72.72,0,0,0-.72-.38,1,1,0,0,0-.84.38,1.74,1.74,0,0,0-.28,1.07v2.93h-1.38V78.56h1.38v2.58a1.71,1.71,0,0,1,.69-.66,1.93,1.93,0,0,1,.83-.19A2.2,2.2,0,0,1,182.87,80.48Z" transform="translate(-0.83 -34.74)"/><path class="cls-40" d="M188.31,79.3a3.35,3.35,0,0,1,4.86.31,2.66,2.66,0,0,1,.5,1.36h-1.5a2.08,2.08,0,0,0-.37-.79,1.5,1.5,0,0,0-1.21-.48,1.49,1.49,0,0,0-1.29.68,3.27,3.27,0,0,0-.47,1.9,2.89,2.89,0,0,0,.5,1.85,1.57,1.57,0,0,0,1.27.61,1.43,1.43,0,0,0,1.2-.53,2.31,2.31,0,0,0,.38-.85h1.48a3.29,3.29,0,0,1-1,1.94,2.86,2.86,0,0,1-2,.75,3.06,3.06,0,0,1-2.43-1,4.11,4.11,0,0,1-.88-2.79A4.07,4.07,0,0,1,188.31,79.3Z" transform="translate(-0.83 -34.74)"/><path class="cls-40" d="M198.3,80.48A1.56,1.56,0,0,1,199,81a1.42,1.42,0,0,1,.27.62,7.77,7.77,0,0,1,0,1v3.18h-1.41V82.56a1.48,1.48,0,0,0-.15-.7.73.73,0,0,0-.72-.38,1,1,0,0,0-.83.38,1.74,1.74,0,0,0-.28,1.07v2.93H194.5V78.56h1.38v2.58a1.71,1.71,0,0,1,.69-.66,1.94,1.94,0,0,1,.84-.19A2.2,2.2,0,0,1,198.3,80.48Z" transform="translate(-0.83 -34.74)"/><path class="cls-40" d="M201.8,79.8h-1.4V78.49h1.4Zm-1.4.65h1.4v5.41h-1.4Z" transform="translate(-0.83 -34.74)"/><path class="cls-40" d="M207.21,80.75a1.8,1.8,0,0,1,.52,1.45v3.64h-1.42V82.56a1.53,1.53,0,0,0-.11-.65.78.78,0,0,0-.78-.42,1,1,0,0,0-1,.61,2.13,2.13,0,0,0-.14.82v2.93H203v-5.4h1.34v.79a2.36,2.36,0,0,1,.5-.6,1.73,1.73,0,0,1,1.08-.33A2,2,0,0,1,207.21,80.75Z" transform="translate(-0.83 -34.74)"/><path class="cls-40" d="M211.74,83.22a1.56,1.56,0,0,1-.27.14,2.38,2.38,0,0,1-.36.09l-.31.06a2,2,0,0,0-.63.19.76.76,0,0,0-.13,1.13.74.74,0,0,0,.48.16,1.37,1.37,0,0,0,.82-.27,1.15,1.15,0,0,0,.39-1Zm-.84-.66a2.1,2.1,0,0,0,.55-.12.43.43,0,0,0,.3-.4.47.47,0,0,0-.23-.46,1.36,1.36,0,0,0-.66-.13.85.85,0,0,0-.69.25,1,1,0,0,0-.2.49h-1.33A2.1,2.1,0,0,1,209,81a2.23,2.23,0,0,1,1.88-.71,3.3,3.3,0,0,1,1.54.35,1.36,1.36,0,0,1,.68,1.33v2.48c0,.17,0,.38,0,.63a.81.81,0,0,0,.08.38.49.49,0,0,0,.2.16v.21h-1.51a1.52,1.52,0,0,1-.09-.31c0-.1,0-.21,0-.33a2.84,2.84,0,0,1-.66.54,2,2,0,0,1-1,.26,1.72,1.72,0,0,1-1.19-.42,1.53,1.53,0,0,1-.47-1.19,1.55,1.55,0,0,1,.75-1.44,3.3,3.3,0,0,1,1.21-.35Z" transform="translate(-0.83 -34.74)"/><path class="cls-40" d="M216.84,78.54h1.52V83a2.59,2.59,0,0,0,.17,1.1,1.44,1.44,0,0,0,2.36,0,2.59,2.59,0,0,0,.18-1.1v-4.5h1.52V83a3.84,3.84,0,0,1-.35,1.82,3.27,3.27,0,0,1-5,0,3.85,3.85,0,0,1-.35-1.82Z" transform="translate(-0.83 -34.74)"/><path class="cls-40" d="M228,80.75a1.8,1.8,0,0,1,.52,1.45v3.64h-1.42V82.56a1.51,1.51,0,0,0-.11-.65.78.78,0,0,0-.78-.42,1,1,0,0,0-1,.61,2.11,2.11,0,0,0-.14.82v2.93h-1.38v-5.4h1.34v.79a2.37,2.37,0,0,1,.51-.6,1.73,1.73,0,0,1,1.08-.33A2,2,0,0,1,228,80.75Z" transform="translate(-0.83 -34.74)"/><path class="cls-40" d="M231,79.8h-1.4V78.49H231Zm-1.4.65H231v5.41h-1.4Z" transform="translate(-0.83 -34.74)"/><polygon class="cls-40" points="234.59 45.71 236.08 45.71 234.17 51.12 232.71 51.12 230.81 45.71 232.36 45.71 233.47 49.7 234.59 45.71"/><path class="cls-40" d="M238.83,81.77a1.57,1.57,0,0,0-.33.83h2.15a1.23,1.23,0,0,0-.33-.85,1,1,0,0,0-.74-.29A.94.94,0,0,0,238.83,81.77Zm1.94-1.22a2.1,2.1,0,0,1,.87.8,2.76,2.76,0,0,1,.4,1.12,7.3,7.3,0,0,1,0,1.07h-3.62a1.36,1.36,0,0,0,.5,1.14,1.15,1.15,0,0,0,.69.2,1,1,0,0,0,.69-.25,1.17,1.17,0,0,0,.26-.37H242a1.82,1.82,0,0,1-.49,1,2.38,2.38,0,0,1-1.9.79,2.65,2.65,0,0,1-1.78-.67,2.71,2.71,0,0,1-.77-2.16,3.06,3.06,0,0,1,.69-2.15,2.36,2.36,0,0,1,1.81-.75A2.73,2.73,0,0,1,240.77,80.55Z" transform="translate(-0.83 -34.74)"/><path class="cls-40" d="M245.77,80.32h.12v1.45l-.23,0h-.17a1.14,1.14,0,0,0-1.12.56,2.19,2.19,0,0,0-.16,1v2.59h-1.39V80.44h1.32v.94a3,3,0,0,1,.56-.74,1.5,1.5,0,0,1,1-.33Z" transform="translate(-0.83 -34.74)"/><path class="cls-40" d="M247.58,84.12a1,1,0,0,0,.19.54,1.26,1.26,0,0,0,1,.28,1.41,1.41,0,0,0,.65-.12.42.42,0,0,0,0-.74,7.84,7.84,0,0,0-1.44-.43,3,3,0,0,1-1.27-.57,1.25,1.25,0,0,1-.37-1,1.7,1.7,0,0,1,.57-1.28,2.28,2.28,0,0,1,1.62-.54,2.9,2.9,0,0,1,1.61.41,1.73,1.73,0,0,1,.72,1.39h-1.38a.84.84,0,0,0-.15-.43.93.93,0,0,0-.78-.29,1.11,1.11,0,0,0-.64.14.42.42,0,0,0-.19.34.37.37,0,0,0,.2.35,8.67,8.67,0,0,0,1.44.39,2.6,2.6,0,0,1,1.24.6,1.37,1.37,0,0,1,.41,1,1.66,1.66,0,0,1-.59,1.31,3.46,3.46,0,0,1-3.65,0,1.78,1.78,0,0,1-.59-1.37Z" transform="translate(-0.83 -34.74)"/><path class="cls-40" d="M253.26,79.8h-1.4V78.49h1.4Zm-1.4.65h1.4v5.41h-1.4Z" transform="translate(-0.83 -34.74)"/><path class="cls-40" d="M253.87,81.5v-1h.74V79H256v1.51h.86v1H256v2.86a.67.67,0,0,0,.08.42.91.91,0,0,0,.51.08h.27V85.9l-.66,0a1.73,1.73,0,0,1-1.34-.35,1,1,0,0,1-.23-.75V81.5Z" transform="translate(-0.83 -34.74)"/><path class="cls-40" d="M257.74,86.89h.18a2.21,2.21,0,0,0,.39,0,.7.7,0,0,0,.31-.11,1.26,1.26,0,0,0,.31-.68L257,80.44h1.54l1.16,4,1.09-4h1.47l-1.82,5.32a7.54,7.54,0,0,1-.83,1.91,1.55,1.55,0,0,1-1.22.37h-.63Z" transform="translate(-0.83 -34.74)"/><path class="cls-40" d="M268.74,84.41a2.08,2.08,0,0,0,.33-1.26,2.06,2.06,0,0,0-.33-1.25,1.21,1.21,0,0,0-1.87,0,2.06,2.06,0,0,0-.33,1.25,2.09,2.09,0,0,0,.33,1.26,1.21,1.21,0,0,0,1.87,0Zm1.11.78a2.88,2.88,0,0,1-4.07,0,3.43,3.43,0,0,1,0-4.07,2.84,2.84,0,0,1,4.07,0,3.43,3.43,0,0,1,0,4.07Z" transform="translate(-0.83 -34.74)"/><path class="cls-40" d="M273.5,78.47l.29,0v1.15l-.39,0a.44.44,0,0,0-.38.12.45.45,0,0,0-.1.29v.46h.91v1h-.91v4.36h-1.38V81.49h-.77v-1h.76v-.35a1.86,1.86,0,0,1,.29-1.2q.3-.49,1.45-.49Z" transform="translate(-0.83 -34.74)"/><polygon class="cls-40" points="281.48 43.8 281.48 45.1 279.33 45.1 279.33 51.12 277.83 51.12 277.83 45.1 275.68 45.1 275.68 43.8 281.48 43.8"/><path class="cls-40" d="M283.48,81.77a1.57,1.57,0,0,0-.33.83h2.15a1.23,1.23,0,0,0-.33-.85,1,1,0,0,0-.74-.29A.94.94,0,0,0,283.48,81.77Zm1.94-1.22a2.11,2.11,0,0,1,.87.8,2.78,2.78,0,0,1,.4,1.12,7.48,7.48,0,0,1,0,1.07h-3.62a1.35,1.35,0,0,0,.5,1.14,1.16,1.16,0,0,0,.69.2,1,1,0,0,0,.69-.25,1.16,1.16,0,0,0,.26-.37h1.41a1.81,1.81,0,0,1-.49,1,2.38,2.38,0,0,1-1.9.79,2.65,2.65,0,0,1-1.78-.67,2.71,2.71,0,0,1-.77-2.16,3.06,3.06,0,0,1,.69-2.15,2.36,2.36,0,0,1,1.81-.75A2.73,2.73,0,0,1,285.42,80.55Z" transform="translate(-0.83 -34.74)"/><path class="cls-40" d="M290.63,82.38a1.3,1.3,0,0,0-.2-.55.83.83,0,0,0-.73-.33,1,1,0,0,0-1,.71,3,3,0,0,0-.14,1,2.77,2.77,0,0,0,.14,1,.92.92,0,0,0,.93.67.81.81,0,0,0,.69-.27,1.36,1.36,0,0,0,.25-.69H292a2.39,2.39,0,0,1-.46,1.22,2.2,2.2,0,0,1-1.93.93,2.23,2.23,0,0,1-1.88-.77,3.18,3.18,0,0,1-.6-2,3.23,3.23,0,0,1,.66-2.17,2.29,2.29,0,0,1,1.84-.77,2.71,2.71,0,0,1,1.63.46,2.14,2.14,0,0,1,.75,1.61Z" transform="translate(-0.83 -34.74)"/><path class="cls-40" d="M296.62,80.48a1.56,1.56,0,0,1,.66.53,1.43,1.43,0,0,1,.27.62,7.82,7.82,0,0,1,0,1v3.18h-1.41V82.56a1.48,1.48,0,0,0-.15-.7.73.73,0,0,0-.72-.38,1,1,0,0,0-.84.38,1.74,1.74,0,0,0-.28,1.07v2.93h-1.38V78.56h1.38v2.58a1.7,1.7,0,0,1,.7-.66,1.93,1.93,0,0,1,.83-.19A2.21,2.21,0,0,1,296.62,80.48Z" transform="translate(-0.83 -34.74)"/><path class="cls-40" d="M303,80.75a1.8,1.8,0,0,1,.52,1.45v3.64h-1.42V82.56a1.55,1.55,0,0,0-.11-.65.78.78,0,0,0-.78-.42,1,1,0,0,0-1,.61,2.13,2.13,0,0,0-.14.82v2.93H298.7v-5.4H300v.79a2.39,2.39,0,0,1,.51-.6,1.73,1.73,0,0,1,1.08-.33A2,2,0,0,1,303,80.75Z" transform="translate(-0.83 -34.74)"/><path class="cls-40" d="M307.87,84.41a2.09,2.09,0,0,0,.32-1.26,2.06,2.06,0,0,0-.32-1.25,1.09,1.09,0,0,0-.93-.44,1.1,1.1,0,0,0-.94.44,2.06,2.06,0,0,0-.33,1.25,2.08,2.08,0,0,0,.33,1.26,1.1,1.1,0,0,0,.94.44A1.09,1.09,0,0,0,307.87,84.41Zm1.11.78a2.88,2.88,0,0,1-4.07,0,3.43,3.43,0,0,1,0-4.07,2.84,2.84,0,0,1,4.07,0,3.42,3.42,0,0,1,0,4.07Z" transform="translate(-0.83 -34.74)"/><rect class="cls-41" x="309.65" y="43.8" width="1.38" height="7.31"/><path class="cls-40" d="M316.32,84.41a2.1,2.1,0,0,0,.33-1.26,2.07,2.07,0,0,0-.33-1.25,1.09,1.09,0,0,0-.93-.44,1.1,1.1,0,0,0-.94.44,2.07,2.07,0,0,0-.32,1.25,2.1,2.1,0,0,0,.32,1.26,1.1,1.1,0,0,0,.94.44A1.09,1.09,0,0,0,316.32,84.41Zm1.11.78a2.88,2.88,0,0,1-4.07,0,3.43,3.43,0,0,1,0-4.07,2.84,2.84,0,0,1,4.07,0,3.42,3.42,0,0,1,0,4.07Z" transform="translate(-0.83 -34.74)"/><path class="cls-40" d="M322,84.32a1.77,1.77,0,0,0,.33-1.2A1.85,1.85,0,0,0,322,82a1,1,0,0,0-.85-.4,1,1,0,0,0-1,.7,2.52,2.52,0,0,0-.15.92,2.15,2.15,0,0,0,.16.84,1,1,0,0,0,1,.68A1.06,1.06,0,0,0,322,84.32Zm-.47-3.88a1.67,1.67,0,0,1,.82.78v-.78h1.35v5.13a2.93,2.93,0,0,1-.34,1.58,2.51,2.51,0,0,1-2.27.91,3.05,3.05,0,0,1-1.66-.41,1.51,1.51,0,0,1-.71-1.22h1.5a.65.65,0,0,0,.19.36,1.16,1.16,0,0,0,.75.19,1,1,0,0,0,1-.51,2.65,2.65,0,0,0,.16-1.1V85a1.54,1.54,0,0,1-1.5.84,2,2,0,0,1-1.63-.73,3,3,0,0,1-.61-2,3.38,3.38,0,0,1,.59-2,1.93,1.93,0,0,1,1.67-.82A1.78,1.78,0,0,1,321.52,80.44Z" transform="translate(-0.83 -34.74)"/><path class="cls-40" d="M325,86.89h.17a2.19,2.19,0,0,0,.39,0,.7.7,0,0,0,.31-.11.75.75,0,0,0,.22-.35.77.77,0,0,0,.09-.33l-1.94-5.65h1.54l1.16,4,1.09-4h1.47l-1.81,5.32a7.57,7.57,0,0,1-.83,1.91,1.56,1.56,0,0,1-1.22.37H325Z" transform="translate(-0.83 -34.74)"/></svg>